<svg width="188" height="188" viewBox="0 0 188 188" fill="none" xmlns="http://www.w3.org/2000/svg">
<circle cx="94" cy="94" r="63.5" fill="url(#paint0_linear_1_35127)" stroke="url(#paint1_linear_1_35127)" stroke-width="5"/>
<path d="M94.011 86.1071C89.54 86.1071 85.8496 89.7974 85.8496 94.2685C85.8496 98.7396 89.5399 102.43 94.011 102.43C98.4821 102.43 102.172 98.7396 102.172 94.2685C102.172 89.7974 98.482 86.1071 94.011 86.1071Z" fill="white"/>
<path d="M72.2947 116.269C71.7269 116.269 71.2301 116.056 70.8044 115.63C59.0947 103.85 59.0947 84.6883 70.8044 72.9076C71.656 72.0561 73.0044 72.0561 73.7851 72.9076C74.6367 73.7592 74.6367 75.1077 73.7851 75.8883C63.7076 86.0367 63.7076 102.501 73.7851 112.65C74.6367 113.501 74.6367 114.85 73.7851 115.631C73.3592 116.056 72.8625 116.269 72.2947 116.269Z" fill="white"/>
<path d="M115.727 116.269C115.159 116.269 114.663 116.056 114.237 115.63C113.385 114.778 113.385 113.43 114.237 112.649C124.315 102.501 124.315 86.0361 114.237 75.8876C113.385 75.036 113.385 73.6876 114.237 72.9069C115.089 72.0553 116.437 72.0553 117.218 72.9069C128.927 84.6877 128.927 103.849 117.218 115.63C116.792 116.056 116.295 116.269 115.727 116.269Z" fill="white"/>
<path d="M81.3077 107.327C80.7399 107.327 80.2431 107.114 79.8174 106.688C72.9334 99.8038 72.9334 88.6619 79.8174 81.849C80.669 80.9974 82.0174 80.9974 82.7981 81.849C83.6497 82.7005 83.6497 84.049 82.7981 84.8297C77.6174 90.0104 77.6174 98.4555 82.7981 103.707C83.6497 104.559 83.6497 105.907 82.7981 106.688C82.3721 107.114 81.8753 107.327 81.3077 107.327Z" fill="white"/>
<path d="M106.714 107.327C106.146 107.327 105.65 107.114 105.224 106.688C104.372 105.836 104.372 104.488 105.224 103.707C110.405 98.5264 110.405 90.0813 105.224 84.8297C104.372 83.9781 104.372 82.6296 105.224 81.849C106.076 80.9974 107.424 80.9974 108.205 81.849C115.089 88.7329 115.089 99.8749 108.205 106.688C107.779 107.114 107.282 107.327 106.714 107.327Z" fill="white"/>
<path opacity="0.6" d="M188 94C188 145.915 145.915 188 94 188C42.0852 188 0 145.915 0 94C0 42.0852 42.0852 0 94 0C145.915 0 188 42.0852 188 94ZM28.6503 94C28.6503 130.092 57.9084 159.35 94 159.35C130.092 159.35 159.35 130.092 159.35 94C159.35 57.9084 130.092 28.6503 94 28.6503C57.9084 28.6503 28.6503 57.9084 28.6503 94Z" fill="url(#paint2_radial_1_35127)"/>
<defs>
<linearGradient id="paint0_linear_1_35127" x1="-4.14072e-06" y1="-16.5" x2="199" y2="195.5" gradientUnits="userSpaceOnUse">
<stop stop-color="#353CB1"/>
<stop offset="1" stop-color="#260D6C"/>
</linearGradient>
<linearGradient id="paint1_linear_1_35127" x1="94" y1="28" x2="94" y2="160" gradientUnits="userSpaceOnUse">
<stop stop-color="#00DAA0"/>
<stop offset="1" stop-color="#00EFFF"/>
</linearGradient>
<radialGradient id="paint2_radial_1_35127" cx="0" cy="0" r="1" gradientUnits="userSpaceOnUse" gradientTransform="translate(94.2493 100.5) rotate(90.1742) scale(82.0004)">
<stop stop-color="#01E9E4"/>
<stop offset="1" stop-color="#48D9B9" stop-opacity="0"/>
</radialGradient>
</defs>
</svg>
