<svg width="350" height="373" viewBox="0 0 350 373" fill="none" xmlns="http://www.w3.org/2000/svg">
<path d="M304.232 43.1822C304.118 43.1018 303.995 43.0016 303.858 42.9771C303.72 42.9527 303.545 42.9784 303.479 43.0986C303.35 43.2911 303.518 43.558 303.5 43.7971C303.469 44.0303 303.252 44.2357 303.302 44.47C303.358 44.6904 303.67 44.7707 303.88 44.661C304.089 44.5513 304.202 44.3192 304.276 44.1034C304.357 43.9075 304.411 43.6999 304.383 43.4912C304.355 43.2824 304.172 43.0913 303.969 43.1053L304.232 43.1822Z" fill="#2515539f"/>
<path d="M232.345 11.5781C232.414 11.6889 232.358 11.8627 232.234 11.9257C232.109 11.9887 231.965 11.9783 231.834 11.9398C231.764 11.9107 231.68 11.8758 231.621 11.8187C231.496 11.6846 231.534 11.4374 231.682 11.3184C231.838 11.2192 232.071 11.2506 232.184 11.4126C232.284 11.5688 232.252 11.8021 232.118 11.9269L232.345 11.5781Z" fill="#2515539f"/>
<path d="M261.994 37.0017C262.063 37.1124 262.007 37.2862 261.883 37.3493C261.758 37.4123 261.614 37.4018 261.483 37.3634C261.413 37.3343 261.329 37.2994 261.27 37.2423C261.146 37.1082 261.183 36.861 261.331 36.7419C261.487 36.6427 261.72 36.6741 261.833 36.8362C261.933 36.9924 261.901 37.2256 261.767 37.3505L261.994 37.0017Z" fill="#2515539f"/>
<path d="M259.552 7.7928C259.382 7.60747 259.213 7.42214 258.975 7.32313C258.751 7.22995 258.459 7.22308 258.281 7.41208C258.193 7.50658 258.146 7.61854 258.142 7.74799C258.1 8.12466 258.424 8.48952 258.799 8.49751C259.173 8.50549 259.524 8.17528 259.518 7.79513L259.552 7.7928Z" fill="#2515539f"/>
<path d="M339.104 224.729C338.389 223.134 337.291 221.708 335.935 220.586C335.713 220.411 335.49 220.236 335.212 220.153C334.679 220.014 334.127 220.276 333.724 220.651C332.755 221.561 332.51 223.134 333.037 224.355C333.563 225.575 334.793 226.448 336.101 226.697C336.818 226.831 337.615 226.769 338.218 226.346C338.821 225.924 339.142 225.073 338.805 224.423C338.577 224.378 338.351 224.645 338.427 224.857L339.104 224.729Z" fill="#2515539f"/>
<path d="M260.398 162.045C259.682 160.45 258.584 159.024 257.243 157.908C257.02 157.733 256.797 157.558 256.52 157.476C255.987 157.336 255.434 157.598 255.032 157.973C254.062 158.883 253.818 160.456 254.344 161.677C254.871 162.898 256.1 163.77 257.409 164.019C258.125 164.153 258.923 164.091 259.525 163.669C260.128 163.246 260.449 162.395 260.112 161.745C259.885 161.7 259.659 161.967 259.735 162.179L260.398 162.045Z" fill="#293094"/>
<path d="M282.588 239.092C282.363 238.686 281.922 238.404 281.47 238.347C281.43 238.561 281.382 238.754 281.424 238.969C281.472 239.169 281.616 239.377 281.815 239.411C282.09 239.459 282.331 239.198 282.505 238.975C282.524 239.049 282.523 239.13 282.542 239.204L282.588 239.092Z" fill="#2515539f"/>
<path d="M279.363 240.016C279.263 239.941 279.129 239.869 279.007 239.884C278.886 239.899 278.77 239.982 278.673 240.057C278.402 240.273 278.11 240.463 277.809 240.633C278.368 240.751 278.926 240.868 279.505 240.978C279.553 240.981 279.595 240.999 279.637 241.016C279.765 241.102 279.711 241.31 279.777 241.468C279.867 241.686 280.153 241.707 280.382 241.671C282.011 241.347 279.955 240.41 279.363 240.016Z" fill="#2515539f"/>
<path d="M286.413 243.277C286.556 243.288 286.696 243.346 286.81 243.426C286.542 243.676 286.124 243.617 285.778 243.539C285.585 243.491 285.341 243.406 285.313 243.197C285.29 243.056 285.39 242.934 285.414 242.796C285.477 242.527 285.308 242.144 285.549 241.999C285.686 241.908 285.873 241.969 285.984 242.097C286.081 242.22 286.132 242.373 286.164 242.534C286.255 242.867 286.34 243.214 286.417 243.542L286.413 243.277Z" fill="#2515539f"/>
<path d="M280.865 245.008C280.934 245.119 280.878 245.293 280.753 245.356C280.628 245.419 280.485 245.408 280.353 245.37C280.283 245.341 280.199 245.306 280.141 245.249C280.016 245.115 280.053 244.867 280.201 244.748C280.358 244.649 280.591 244.681 280.704 244.843C280.803 244.999 280.778 245.218 280.638 245.357L280.865 245.008Z" fill="#2515539f"/>
<path d="M281.752 243.39C281.955 243.179 281.769 242.757 281.482 242.736C281.382 242.859 281.31 242.993 281.294 243.15C281.297 243.3 281.377 243.464 281.528 243.494C281.68 243.525 281.854 243.383 281.816 243.237L281.752 243.39Z" fill="#2515539f"/>
<path d="M285.523 237.998C285.451 237.656 285.219 237.346 284.903 237.198C284.807 237.47 284.696 237.736 284.599 238.007C284.547 238.133 284.508 238.265 284.518 238.4C284.556 238.663 284.892 238.803 285.144 238.71C285.396 238.618 285.518 238.324 285.499 238.054L285.523 237.998Z" fill="#2515539f"/>
<path d="M282.637 241.46C282.736 241.616 283.01 241.55 283.108 241.393C283.206 241.237 283.226 241.032 283.316 240.856C283.405 240.68 283.573 240.552 283.774 240.504C283.881 240.483 284.01 240.488 284.091 240.571C284.149 240.628 284.162 240.715 284.167 240.783C284.227 241.153 284.241 241.553 284.101 241.888C283.955 242.238 283.622 242.527 283.248 242.519C282.989 242.509 282.74 242.357 282.608 242.121C282.491 241.892 282.497 241.599 282.638 241.378L282.637 241.46Z" fill="#2515539f"/>
<path d="M281.164 236.595C281.094 236.368 280.82 236.238 280.594 236.308C280.368 236.378 280.207 236.607 280.176 236.84C280.163 236.95 280.178 237.071 280.276 237.112C280.346 237.141 280.411 237.102 280.477 237.064C280.732 236.924 280.987 236.784 281.243 236.644L281.164 236.595Z" fill="#2515539f"/>
<path d="M289.473 246.735C289.54 247.206 289.029 247.683 288.558 247.553C288.552 247.172 288.566 246.784 288.762 246.471C288.971 246.165 289.449 246.002 289.719 246.262C289.741 246.485 289.769 246.694 289.778 246.911L289.473 246.735Z" fill="#2515539f"/>
<path d="M279.088 243.202C278.99 243.161 278.906 243.126 278.814 243.071C278.728 243.199 278.644 243.362 278.681 243.508C278.713 243.669 278.931 243.777 279.031 243.654C279.069 243.604 279.078 243.542 279.087 243.48C279.115 243.295 279.143 243.109 279.171 242.924L279.088 243.202Z" fill="#2515539f"/>
<path d="M338.059 210.55C337.59 209.665 336.624 209.066 335.628 209.013C335.11 209.865 334.866 210.962 335.29 211.877C335.7 212.787 336.894 213.35 337.771 212.86C338.648 212.371 338.633 210.789 337.674 210.489L338.059 210.55Z" fill="#2515539f"/>
<path d="M309.673 230.823C309.573 230.748 309.439 230.676 309.318 230.691C309.196 230.706 309.08 230.789 308.983 230.864C308.713 231.08 308.42 231.27 308.119 231.44C308.678 231.558 309.236 231.676 309.815 231.785C309.863 231.788 309.905 231.806 309.947 231.823C310.075 231.909 310.021 232.117 310.087 232.276C310.177 232.494 310.464 232.515 310.692 232.478C312.321 232.155 310.265 231.217 309.673 230.823Z" fill="#2515539f"/>
<path d="M316.2 239.564C316.014 239.339 315.605 239.613 315.632 239.903C315.659 240.193 315.898 240.408 316.135 240.588C316.435 240.303 316.511 239.842 316.356 239.465L316.2 239.564Z" fill="#2515539f"/>
<path d="M311.175 235.815C311.244 235.926 311.188 236.1 311.064 236.163C310.939 236.226 310.795 236.216 310.664 236.177C310.594 236.148 310.51 236.113 310.451 236.056C310.326 235.922 310.364 235.675 310.512 235.556C310.668 235.457 310.901 235.488 311.014 235.65C311.114 235.806 311.088 236.025 310.948 236.164L311.175 235.815Z" fill="#2515539f"/>
<path d="M312.076 234.203C312.279 233.992 312.093 233.57 311.806 233.549C311.706 233.672 311.634 233.806 311.618 233.963C311.621 234.113 311.701 234.277 311.852 234.307C312.004 234.338 312.177 234.196 312.14 234.05L312.076 234.203Z" fill="#2515539f"/>
<path d="M312.552 239.689C312.659 239.865 312.642 240.104 312.524 240.268C312.407 240.433 312.175 240.517 311.981 240.469C311.849 240.431 311.705 240.305 311.763 240.165C311.786 240.109 311.832 240.078 311.883 240.034C312.09 239.89 312.304 239.733 312.511 239.589C312.527 239.629 312.544 239.669 312.574 239.714L312.552 239.689Z" fill="#2515539f"/>
<path d="M307.751 240.137C307.68 240.387 307.906 240.596 308.12 240.751C308.321 240.9 308.578 241.072 308.554 241.325C308.559 241.393 308.53 241.463 308.465 241.502C308.308 241.601 308.159 241.407 308.003 241.309C307.883 241.243 307.725 241.227 307.599 241.174C307.28 241.074 307.039 240.744 307.03 240.412C307.114 240.25 307.29 240.142 307.467 240.15C307.644 240.159 307.823 240.282 307.882 240.455L307.751 240.137Z" fill="#2515539f"/>
<path d="M305.388 241.043C305.303 241.089 305.218 241.136 305.133 241.183C305.13 241.346 305.264 241.5 305.421 241.516C305.578 241.532 305.746 241.405 305.749 241.242C305.751 241.078 305.558 240.949 305.414 241.02L305.388 241.043Z" fill="#2515539f"/>
<path d="M312.954 232.253C313.053 232.409 313.327 232.343 313.425 232.187C313.522 232.03 313.542 231.825 313.632 231.649C313.722 231.473 313.889 231.346 314.09 231.298C314.197 231.277 314.327 231.281 314.407 231.364C314.466 231.421 314.478 231.509 314.483 231.576C314.543 231.946 314.557 232.346 314.417 232.682C314.272 233.032 313.938 233.32 313.564 233.312C313.305 233.303 313.057 233.15 312.925 232.914C312.807 232.685 312.814 232.392 312.955 232.172L312.954 232.253Z" fill="#2515539f"/>
<path d="M308.745 243.392C308.853 243.371 308.95 243.493 308.951 243.608C308.952 243.724 308.883 243.81 308.815 243.897C308.752 243.969 308.694 244.027 308.615 244.06C308.457 244.125 308.241 244.052 308.156 243.901C308.056 243.745 308.07 243.554 308.154 243.392C308.203 243.314 308.26 243.255 308.354 243.229C308.441 243.216 308.539 243.256 308.558 243.33L308.745 243.392Z" fill="#2515539f"/>
<path d="M309.398 234.009C309.3 233.968 309.216 233.933 309.124 233.878C309.038 234.007 308.954 234.169 308.992 234.316C309.023 234.477 309.241 234.584 309.342 234.461C309.379 234.411 309.388 234.349 309.397 234.287C309.425 234.102 309.453 233.917 309.481 233.731L309.398 234.009Z" fill="#2515539f"/>
<path d="M334.701 183.817C334.231 182.933 333.266 182.334 332.27 182.281C331.751 183.132 331.508 184.229 331.932 185.145C332.341 186.054 333.536 186.617 334.413 186.128C335.289 185.639 335.275 184.056 334.316 183.756L334.701 183.817Z" fill="#293094"/>
<path d="M265.527 196.953C265.058 196.068 264.092 195.469 263.096 195.416C262.577 196.267 262.334 197.365 262.758 198.28C263.168 199.189 264.362 199.752 265.239 199.263C266.115 198.774 266.101 197.191 265.142 196.891L265.527 196.953Z" fill="#2515539f"/>
<path d="M321.329 173.968C321.229 173.893 321.094 173.821 320.973 173.836C320.852 173.852 320.735 173.934 320.639 174.009C320.368 174.225 320.076 174.415 319.775 174.586C320.333 174.703 320.898 174.807 321.47 174.93C321.518 174.933 321.56 174.951 321.602 174.968C321.731 175.055 321.677 175.262 321.742 175.421C321.832 175.639 322.119 175.66 322.348 175.623C323.977 175.3 321.92 174.362 321.329 173.968Z" fill="#2515539f"/>
<path d="M322.831 178.96C322.899 179.071 322.844 179.245 322.719 179.308C322.594 179.371 322.451 179.36 322.319 179.322C322.249 179.293 322.165 179.258 322.106 179.201C321.982 179.067 322.019 178.82 322.167 178.701C322.323 178.601 322.556 178.633 322.67 178.795C322.769 178.951 322.737 179.184 322.603 179.309L322.831 178.96Z" fill="#2515539f"/>
<path d="M310.182 194.205C310.251 194.316 310.195 194.49 310.07 194.553C309.945 194.616 309.802 194.605 309.67 194.567C309.6 194.538 309.516 194.503 309.458 194.446C309.333 194.312 309.37 194.064 309.518 193.945C309.674 193.846 309.907 193.878 310.021 194.04C310.12 194.196 310.088 194.429 309.954 194.554L310.182 194.205Z" fill="#2515539f"/>
<path d="M323.731 177.348C323.934 177.137 323.749 176.715 323.462 176.694C323.362 176.817 323.289 176.951 323.273 177.108C323.277 177.257 323.356 177.422 323.502 177.466C323.653 177.496 323.827 177.355 323.79 177.208L323.731 177.348Z" fill="#2515539f"/>
<path d="M324.207 182.834C324.315 183.01 324.297 183.249 324.18 183.413C324.062 183.578 323.83 183.662 323.636 183.614C323.505 183.576 323.36 183.45 323.418 183.31C323.441 183.254 323.487 183.223 323.538 183.179C323.746 183.036 323.959 182.878 324.167 182.734C324.183 182.774 324.199 182.814 324.23 182.859L324.207 182.834Z" fill="#2515539f"/>
<path d="M319.407 183.282C319.336 183.532 319.561 183.741 319.775 183.896C319.976 184.045 320.233 184.217 320.209 184.47C320.214 184.538 320.185 184.608 320.12 184.646C319.964 184.746 319.814 184.552 319.658 184.454C319.538 184.388 319.38 184.372 319.254 184.319C318.935 184.219 318.694 183.889 318.685 183.557C318.769 183.395 318.945 183.287 319.122 183.295C319.299 183.303 319.478 183.427 319.537 183.6L319.407 183.282Z" fill="#2515539f"/>
<path d="M317.043 184.187C316.958 184.234 316.873 184.281 316.788 184.327C316.786 184.491 316.919 184.644 317.076 184.661C317.234 184.677 317.402 184.55 317.404 184.386C317.406 184.223 317.214 184.094 317.069 184.165L317.043 184.187Z" fill="#2515539f"/>
<path d="M317.132 191.038C317.047 191.085 316.962 191.131 316.877 191.178C316.874 191.341 317.007 191.495 317.165 191.512C317.322 191.528 317.49 191.401 317.492 191.237C317.494 191.074 317.302 190.945 317.157 191.016L317.132 191.038Z" fill="#2515539f"/>
<path d="M320.4 186.536C320.508 186.515 320.605 186.638 320.606 186.753C320.607 186.869 320.538 186.955 320.469 187.041C320.407 187.114 320.349 187.172 320.27 187.205C320.112 187.27 319.896 187.197 319.811 187.046C319.711 186.89 319.725 186.699 319.809 186.537C319.858 186.459 319.915 186.4 320.009 186.373C320.096 186.361 320.194 186.401 320.213 186.475L320.4 186.536Z" fill="#2515539f"/>
<path d="M248.703 111.072C248.81 111.051 248.907 111.173 248.908 111.289C248.91 111.404 248.841 111.491 248.772 111.577C248.709 111.649 248.652 111.708 248.573 111.74C248.414 111.806 248.198 111.732 248.113 111.582C248.028 111.432 248.028 111.234 248.112 111.072C248.161 110.994 248.218 110.936 248.311 110.909C248.404 110.882 248.497 110.937 248.515 111.01L248.703 111.072Z" fill="#2515539f"/>
<path d="M321.054 177.154C320.956 177.113 320.872 177.078 320.78 177.023C320.694 177.151 320.61 177.313 320.647 177.46C320.679 177.621 320.897 177.728 320.997 177.606C321.034 177.556 321.044 177.494 321.053 177.432C321.081 177.247 321.109 177.061 321.136 176.876L321.054 177.154Z" fill="#2515539f"/>
<path d="M282.903 232.852C282.734 232.666 282.564 232.481 282.326 232.382C282.102 232.289 281.81 232.282 281.633 232.471C281.544 232.566 281.497 232.678 281.493 232.807C281.451 233.184 281.775 233.548 282.15 233.556C282.524 233.564 282.875 233.234 282.869 232.854L282.903 232.852Z" fill="#2515539f"/>
<path d="M304.66 96.8061C304.191 95.9212 303.225 95.3223 302.229 95.2691C301.71 96.1206 301.467 97.218 301.891 98.1332C302.301 99.0426 303.495 99.6053 304.372 99.1163C305.248 98.6272 305.234 97.0448 304.275 96.7444L304.66 96.8061Z" fill="#293094"/>
<path d="M294.527 86.0383C294.302 85.6326 293.861 85.3506 293.408 85.2936C293.369 85.5071 293.321 85.7007 293.363 85.9152C293.405 86.1298 293.555 86.3233 293.754 86.357C294.029 86.4058 294.269 86.1445 294.444 85.9217C294.463 85.9951 294.462 86.0768 294.48 86.1502L294.527 86.0383Z" fill="#2515539f"/>
<path d="M253.651 29.195C253.425 28.7893 252.985 28.5073 252.532 28.4504C252.492 28.6638 252.445 28.8574 252.487 29.072C252.535 29.2725 252.678 29.48 252.878 29.5137C253.153 29.5626 253.393 29.3012 253.568 29.0784C253.586 29.1519 253.585 29.2335 253.604 29.307L253.651 29.195Z" fill="#2515539f"/>
<path d="M291.288 86.9564C291.188 86.8819 291.053 86.8096 290.932 86.8248C290.811 86.8401 290.694 86.9229 290.597 86.9976C290.327 87.2134 290.035 87.4037 289.734 87.5741C290.292 87.6916 290.851 87.8091 291.429 87.9184C291.477 87.9219 291.519 87.9394 291.561 87.9568C291.689 88.0431 291.636 88.2507 291.701 88.4092C291.791 88.6272 292.078 88.6481 292.307 88.6118C293.93 88.302 291.879 87.3503 291.288 86.9564Z" fill="#2515539f"/>
<path d="M298.338 90.218C298.481 90.2284 298.621 90.2867 298.735 90.3671C298.467 90.6168 298.049 90.5575 297.689 90.4737C297.496 90.4259 297.252 90.3409 297.224 90.1322C297.2 89.9911 297.301 89.8686 297.325 89.731C297.388 89.4616 297.219 89.0792 297.46 88.9333C297.596 88.8423 297.784 88.904 297.895 89.0322C297.992 89.1546 298.043 89.3074 298.075 89.4683C298.166 89.8018 298.251 90.1492 298.328 90.4769L298.338 90.218Z" fill="#2515539f"/>
<path d="M297.794 95.7063C297.609 95.4813 297.2 95.7543 297.227 96.0447C297.254 96.335 297.493 96.5495 297.73 96.7302C298.029 96.4443 298.106 95.9837 297.951 95.6071L297.794 95.7063Z" fill="#2515539f"/>
<path d="M292.79 91.9489C292.859 92.0597 292.803 92.2335 292.678 92.2965C292.553 92.3595 292.41 92.3491 292.278 92.3107C292.208 92.2816 292.124 92.2466 292.066 92.1895C291.941 92.0554 291.978 91.8082 292.126 91.6892C292.282 91.59 292.516 91.6214 292.629 91.7834C292.728 91.9396 292.702 92.1589 292.563 92.2977L292.79 91.9489Z" fill="#2515539f"/>
<path d="M293.69 90.3369C293.893 90.1258 293.707 89.7037 293.421 89.6829C293.32 89.8054 293.248 89.9395 293.232 90.0969C293.235 90.2462 293.315 90.4106 293.461 90.4548C293.612 90.4851 293.786 90.3439 293.749 90.197L293.69 90.3369Z" fill="#2515539f"/>
<path d="M234.805 19.9904C235.008 19.7793 234.823 19.3572 234.536 19.3364C234.435 19.4589 234.363 19.593 234.347 19.7504C234.351 19.8997 234.43 20.0641 234.582 20.0944C234.733 20.1246 234.907 19.9834 234.869 19.8365L234.805 19.9904Z" fill="#2515539f"/>
<path d="M297.448 84.9384C297.376 84.5967 297.144 84.2867 296.828 84.1387C296.731 84.4105 296.621 84.6764 296.524 84.9481C296.472 85.0741 296.433 85.2059 296.443 85.3412C296.481 85.6035 296.817 85.7433 297.069 85.6511C297.321 85.5588 297.443 85.2649 297.424 84.9944L297.448 84.9384Z" fill="#2515539f"/>
<path d="M294.167 95.8221C294.274 95.9981 294.257 96.2372 294.139 96.4017C294.021 96.5661 293.789 96.6502 293.596 96.6025C293.464 96.5641 293.319 96.4382 293.377 96.2982C293.401 96.2423 293.446 96.2119 293.497 96.1676C293.705 96.024 293.918 95.8665 294.126 95.723C294.142 95.7626 294.158 95.8023 294.189 95.8477L294.167 95.8221Z" fill="#2515539f"/>
<path d="M289.366 96.2711C289.295 96.5206 289.52 96.7293 289.735 96.8843C289.935 97.0334 290.192 97.2059 290.169 97.4589C290.174 97.5266 290.144 97.5966 290.079 97.6351C289.923 97.7343 289.774 97.5408 289.617 97.4429C289.497 97.3765 289.34 97.3602 289.214 97.3078C288.894 97.2077 288.654 96.8778 288.644 96.5454C288.728 96.3833 288.904 96.276 289.081 96.284C289.259 96.2921 289.437 96.4156 289.497 96.5882L289.366 96.2711Z" fill="#2515539f"/>
<path d="M286.997 97.19C286.912 97.2366 286.826 97.2833 286.741 97.33C286.739 97.4933 286.872 97.6471 287.03 97.6634C287.187 97.6796 287.355 97.5525 287.357 97.3892C287.359 97.2259 287.167 97.0966 287.022 97.1678L286.997 97.19Z" fill="#2515539f"/>
<path d="M287.091 104.027C287.006 104.074 286.921 104.12 286.836 104.167C286.833 104.33 286.966 104.484 287.124 104.5C287.281 104.517 287.449 104.389 287.451 104.226C287.453 104.063 287.261 103.934 287.116 104.005L287.091 104.027Z" fill="#2515539f"/>
<path d="M294.562 88.4007C294.661 88.557 294.935 88.4904 295.033 88.3341C295.131 88.1778 295.151 87.9725 295.24 87.7964C295.33 87.6203 295.498 87.4931 295.699 87.4452C295.806 87.4241 295.935 87.4287 296.016 87.5115C296.074 87.5686 296.087 87.656 296.092 87.7237C296.151 88.0933 296.165 88.4933 296.026 88.8292C295.88 89.1791 295.547 89.4673 295.172 89.4593C294.914 89.4501 294.665 89.2975 294.533 89.062C294.415 88.8323 294.422 88.5396 294.563 88.3191L294.562 88.4007Z" fill="#2515539f"/>
<path d="M293.089 83.5351C293.019 83.3089 292.745 83.1784 292.519 83.2485C292.292 83.3186 292.132 83.5472 292.1 83.7804C292.087 83.8901 292.103 84.0113 292.201 84.0521C292.271 84.0812 292.336 84.0427 292.401 84.0042C292.657 83.8641 292.912 83.7241 293.167 83.584L293.089 83.5351Z" fill="#2515539f"/>
<path d="M301.398 93.6754C301.478 94.1523 300.954 94.6237 300.483 94.4933C300.477 94.1132 300.491 93.7248 300.686 93.4122C300.896 93.1054 301.374 92.9431 301.644 93.2031C301.666 93.4258 301.694 93.6345 301.702 93.8514L301.398 93.6754Z" fill="#2515539f"/>
<path d="M290.36 99.5253C290.467 99.5043 290.564 99.6266 290.565 99.7421C290.566 99.8575 290.497 99.9439 290.429 100.03C290.366 100.103 290.309 100.161 290.229 100.194C290.071 100.259 289.855 100.186 289.77 100.035C289.685 99.8848 289.685 99.6877 289.768 99.5256C289.817 99.4474 289.874 99.3891 289.968 99.3622C290.055 99.3493 290.153 99.3901 290.172 99.4636L290.36 99.5253Z" fill="#2515539f"/>
<path d="M291.013 90.1422C290.915 90.1015 290.831 90.0665 290.739 90.0118C290.653 90.1401 290.569 90.3022 290.606 90.4491C290.638 90.61 290.856 90.7172 290.956 90.5947C290.993 90.5445 291.003 90.4828 291.012 90.4209C291.04 90.2355 291.068 90.0501 291.096 89.8646L291.013 90.1422Z" fill="#2515539f"/>
<path d="M294.827 79.792C294.658 79.6067 294.489 79.4214 294.251 79.3224C294.027 79.2292 293.734 79.2223 293.557 79.4113C293.469 79.5058 293.422 79.6178 293.417 79.7472C293.376 80.1239 293.7 80.4888 294.074 80.4968C294.449 80.5047 294.799 80.1746 294.793 79.7944L294.827 79.792Z" fill="#2515539f"/>
<path d="M306.92 97.8451C306.754 97.8091 306.595 97.759 306.429 97.723C306.363 97.8431 306.33 97.9609 306.325 98.0903C306.526 98.2395 306.848 98.1764 306.983 97.9699L306.92 97.8451Z" fill="#2515539f"/>
<path d="M339.7 237.029C339.622 236.98 339.524 236.939 339.446 236.89C339.324 236.987 339.262 237.175 339.333 237.319C339.404 237.464 339.606 237.531 339.743 237.44C339.879 237.349 339.877 237.118 339.748 237.032L339.7 237.029Z" fill="#2515539f"/>
<path d="M344.947 242.611C344.478 241.726 343.512 241.127 342.516 241.074C341.998 241.925 341.754 243.023 342.178 243.938C342.588 244.847 343.782 245.41 344.659 244.921C345.536 244.432 345.521 242.849 344.562 242.549L344.947 242.611Z" fill="#2515539f"/>
<path d="M299.61 184.847C299.754 184.858 299.894 184.916 300.008 184.996C299.74 185.246 299.321 185.187 298.962 185.103C298.769 185.055 298.525 184.97 298.497 184.762C298.473 184.62 298.573 184.498 298.598 184.36C298.661 184.091 298.491 183.709 298.733 183.563C298.869 183.472 299.057 183.533 299.168 183.662C299.265 183.784 299.316 183.937 299.348 184.098C299.439 184.431 299.524 184.779 299.601 185.106L299.61 184.847Z" fill="#2515539f"/>
<path d="M232.626 105.236C232.526 105.162 232.392 105.09 232.271 105.105C232.149 105.12 232.033 105.203 231.936 105.277C231.666 105.493 231.373 105.684 231.072 105.854C231.631 105.971 232.19 106.089 232.768 106.198C232.816 106.202 232.858 106.219 232.9 106.237C233.028 106.323 232.975 106.531 233.04 106.689C233.13 106.907 233.417 106.928 233.645 106.892C235.268 106.582 233.212 105.644 232.626 105.236Z" fill="#2515539f"/>
<path d="M234.123 110.243C234.192 110.354 234.136 110.527 234.011 110.59C233.886 110.654 233.743 110.643 233.611 110.605C233.541 110.576 233.457 110.541 233.399 110.483C233.274 110.349 233.311 110.102 233.459 109.983C233.615 109.884 233.848 109.915 233.962 110.077C234.061 110.234 234.029 110.467 233.895 110.592L234.123 110.243Z" fill="#2515539f"/>
<path d="M221.48 125.474C221.549 125.585 221.493 125.758 221.368 125.821C221.243 125.885 221.1 125.874 220.968 125.836C220.898 125.807 220.814 125.772 220.756 125.714C220.631 125.58 220.668 125.333 220.816 125.214C220.972 125.115 221.206 125.146 221.319 125.308C221.418 125.465 221.387 125.698 221.253 125.823L221.48 125.474Z" fill="#2515539f"/>
<path d="M235.029 108.617C235.232 108.406 235.046 107.984 234.76 107.963C234.659 108.085 234.587 108.219 234.571 108.377C234.574 108.526 234.654 108.69 234.8 108.735C234.951 108.765 235.125 108.624 235.087 108.477L235.029 108.617Z" fill="#2515539f"/>
<path d="M230.699 114.565C230.628 114.815 230.853 115.024 231.068 115.179C231.268 115.328 231.525 115.5 231.502 115.753C231.506 115.821 231.477 115.891 231.412 115.929C231.256 116.029 231.106 115.835 230.95 115.737C230.83 115.671 230.672 115.655 230.547 115.602C230.227 115.502 229.987 115.172 229.977 114.84C230.061 114.678 230.237 114.57 230.414 114.578C230.592 114.586 230.77 114.71 230.83 114.882L230.699 114.565Z" fill="#2515539f"/>
<path d="M228.336 115.47C228.25 115.517 228.165 115.563 228.08 115.61C228.078 115.773 228.211 115.927 228.368 115.943C228.526 115.96 228.694 115.832 228.696 115.669C228.698 115.506 228.506 115.377 228.361 115.448L228.336 115.47Z" fill="#2515539f"/>
<path d="M228.429 122.307C228.344 122.354 228.259 122.4 228.174 122.447C228.172 122.61 228.305 122.764 228.462 122.78C228.62 122.797 228.788 122.669 228.79 122.506C228.792 122.343 228.6 122.214 228.455 122.285L228.429 122.307Z" fill="#2515539f"/>
<path d="M231.698 117.805C231.806 117.784 231.903 117.907 231.904 118.022C231.905 118.138 231.836 118.224 231.767 118.31C231.705 118.383 231.647 118.441 231.568 118.474C231.41 118.539 231.194 118.466 231.109 118.315C231.009 118.159 231.023 117.968 231.107 117.806C231.156 117.728 231.213 117.669 231.307 117.642C231.394 117.629 231.492 117.67 231.511 117.744L231.698 117.805Z" fill="#2515539f"/>
<path d="M232.352 108.422C232.254 108.382 232.17 108.347 232.078 108.292C231.991 108.42 231.908 108.582 231.945 108.729C231.977 108.89 232.195 108.997 232.295 108.875C232.332 108.825 232.342 108.763 232.351 108.701C232.379 108.516 232.407 108.33 232.434 108.145L232.352 108.422Z" fill="#2515539f"/>
<path d="M210.908 116.116C211.051 116.127 211.191 116.185 211.306 116.265C211.038 116.515 210.619 116.456 210.26 116.372C210.066 116.324 209.822 116.239 209.794 116.03C209.771 115.889 209.871 115.767 209.895 115.629C209.958 115.36 209.789 114.977 210.03 114.832C210.167 114.741 210.355 114.802 210.465 114.93C210.562 115.053 210.614 115.206 210.645 115.367C210.736 115.7 210.822 116.047 210.899 116.375L210.908 116.116Z" fill="#2515539f"/>
<path d="M327.882 214.131C327.697 213.906 327.288 214.18 327.315 214.47C327.342 214.76 327.581 214.975 327.818 215.155C328.117 214.869 328.194 214.409 328.039 214.032L327.882 214.131Z" fill="#2515539f"/>
<path d="M333.063 237.748C333.132 237.859 333.076 238.032 332.952 238.095C332.827 238.158 332.683 238.148 332.552 238.11C332.482 238.08 332.398 238.046 332.339 237.988C332.214 237.854 332.252 237.607 332.4 237.488C332.556 237.389 332.789 237.42 332.902 237.582C333.002 237.739 332.976 237.958 332.836 238.097L333.063 237.748Z" fill="#2515539f"/>
<path d="M334.454 241.627C334.561 241.803 334.544 242.042 334.426 242.206C334.308 242.371 334.076 242.455 333.883 242.407C333.751 242.369 333.606 242.243 333.665 242.103C333.688 242.047 333.733 242.016 333.785 241.972C333.992 241.829 334.206 241.671 334.413 241.528C334.429 241.567 334.446 241.607 334.476 241.652L334.454 241.627Z" fill="#2515539f"/>
<path d="M330.132 243.49C330.054 243.441 329.956 243.4 329.878 243.351C329.755 243.448 329.694 243.636 329.765 243.781C329.836 243.925 330.038 243.993 330.174 243.902C330.311 243.811 330.308 243.58 330.18 243.494L330.132 243.49Z" fill="#2515539f"/>
<path d="M341.685 239.48C341.752 239.951 341.242 240.428 340.77 240.298C340.764 239.918 340.778 239.53 340.974 239.217C341.184 238.91 341.662 238.748 341.931 239.008C341.953 239.23 341.981 239.439 341.99 239.656L341.685 239.48Z" fill="#2515539f"/>
<path d="M325.81 235.567C325.645 235.531 325.485 235.481 325.319 235.445C325.253 235.565 325.22 235.683 325.215 235.812C325.416 235.962 325.738 235.898 325.873 235.692L325.81 235.567Z" fill="#2515539f"/>
<path d="M177.464 101.051C178.825 102.16 180.43 102.959 182.136 103.357C182.406 103.42 182.695 103.475 182.977 103.428C183.513 103.323 183.9 102.827 184.082 102.311C184.538 101.056 184.067 99.5464 183.042 98.6933C182.018 97.8401 180.54 97.603 179.254 97.9709C178.548 98.1695 177.855 98.5709 177.506 99.2136C177.156 99.8563 177.254 100.767 177.841 101.209C178.062 101.153 178.154 100.813 177.973 100.656L177.464 101.051Z" fill="#2515539f"/>
<path d="M184.631 75.5788C184.732 75.6533 184.86 75.7396 184.981 75.7244C185.116 75.715 185.213 75.6403 185.316 75.5516C185.586 75.3358 185.879 75.1456 186.188 74.995C185.629 74.8775 185.062 74.7401 184.504 74.6226C184.456 74.6191 184.414 74.6017 184.378 74.5702C184.249 74.484 184.303 74.2764 184.252 74.1236C184.162 73.9056 183.881 73.8708 183.646 73.921C182.007 74.1912 184.046 75.1709 184.631 75.5788Z" fill="#2515539f"/>
<path d="M125.026 106.915C124.983 106.782 125.108 106.637 125.235 106.608C125.363 106.579 125.503 106.637 125.617 106.718C125.681 106.761 125.739 106.818 125.772 106.897C125.851 107.062 125.738 107.294 125.566 107.353C125.393 107.413 125.181 107.292 125.121 107.119C125.062 106.946 125.169 106.728 125.333 106.649L125.026 106.915Z" fill="#2515539f"/>
<path d="M213.754 77.9602C213.7 77.7737 213.422 77.7726 213.274 77.8916C213.126 78.0106 213.044 78.2066 212.924 78.3372C212.784 78.4761 212.586 78.5578 212.395 78.5439C212.285 78.5311 212.153 78.4927 212.118 78.3796C212.08 78.3143 212.101 78.2245 212.096 78.1569C212.152 77.786 212.247 77.3989 212.493 77.1235C212.731 76.8284 213.133 76.6509 213.495 76.7685C213.738 76.8536 213.944 77.0703 213.982 77.3327C214.027 77.5811 213.924 77.8668 213.725 78.0302L213.754 77.9602Z" fill="#2515539f"/>
<path d="M100.266 139.073C100.212 138.887 99.9334 138.886 99.7853 139.005C99.6373 139.124 99.5558 139.32 99.4357 139.45C99.2959 139.589 99.0976 139.671 98.8924 139.651C98.7828 139.638 98.6509 139.6 98.6159 139.487C98.5774 139.422 98.5984 139.332 98.5937 139.264C98.6495 138.893 98.7449 138.506 98.9908 138.231C99.2286 137.936 99.6308 137.758 99.9924 137.876C100.236 137.961 100.441 138.178 100.48 138.44C100.524 138.688 100.422 138.974 100.223 139.137L100.266 139.073Z" fill="#2515539f"/>
<path d="M117.731 143.188C117.835 143.412 117.953 143.642 118.142 143.819C118.337 143.982 118.614 144.065 118.83 143.941C118.935 143.886 119.015 143.772 119.062 143.66C119.207 143.31 119.014 142.868 118.658 142.737C118.302 142.605 117.863 142.833 117.759 143.2L117.731 143.188Z" fill="#2515539f"/>
<path d="M191.134 98.8586C191.35 100.59 191.977 102.28 192.942 103.748C193.093 103.976 193.273 104.215 193.502 104.376C193.971 104.669 194.583 104.579 195.062 104.335C196.258 103.749 196.948 102.329 196.794 101C196.641 99.6722 195.737 98.4914 194.552 97.8669C193.903 97.5313 193.129 97.3405 192.424 97.5729C191.72 97.8053 191.158 98.5238 191.303 99.2409C191.502 99.3563 191.808 99.1719 191.792 98.9352L191.134 98.8586Z" fill="#2515539f"/>
<path d="M230.774 67.4408C230.857 67.5574 230.94 67.674 231.074 67.7462C231.194 67.8126 231.366 67.8347 231.474 67.732C231.654 67.5769 231.565 67.2772 231.652 67.0673C231.745 66.8433 232.029 66.7149 232.04 66.4898C232.058 66.2508 231.775 66.1005 231.547 66.1367C231.312 66.187 231.141 66.362 230.998 66.5486C230.866 66.7073 230.743 66.8858 230.717 67.105C230.692 67.3243 230.795 67.5481 231.003 67.6016L230.774 67.4408Z" fill="#2515539f"/>
<path d="M187.958 112.725C188.156 113.71 188.895 114.577 189.842 114.905C190.592 114.248 191.149 113.265 191.019 112.275C190.889 111.285 189.91 110.401 188.939 110.605C187.962 110.822 187.516 112.328 188.344 112.902L187.958 112.725Z" fill="#2515539f"/>
<path d="M125.158 98.1528C124.903 98.2928 124.942 98.7523 125.227 98.8548C125.358 98.7777 125.472 98.6611 125.516 98.5153C125.561 98.3695 125.521 98.1888 125.393 98.1025C125.258 98.0303 125.06 98.112 125.05 98.2555L125.158 98.1528Z" fill="#2515539f"/>
<path d="M213.719 51.1323C213.935 52.8639 214.562 54.5534 215.527 56.0222C215.678 56.2496 215.858 56.4885 216.087 56.6493C216.556 56.943 217.168 56.8529 217.647 56.609C218.843 56.023 219.533 54.6023 219.379 53.2742C219.226 51.946 218.322 50.7652 217.137 50.1407C216.488 49.8052 215.714 49.6143 215.009 49.8467C214.305 50.0791 213.743 50.7977 213.888 51.5148C214.087 51.6301 214.393 51.4457 214.377 51.209L213.719 51.1323Z" fill="#2515539f"/>
<path d="M336.014 6.59965C336.23 8.33124 336.857 10.0207 337.822 11.4895C337.973 11.7168 338.153 11.9558 338.382 12.1166C338.851 12.4103 339.463 12.3202 339.942 12.0762C341.138 11.4903 341.828 10.0696 341.674 8.74146C341.521 7.41332 340.617 6.23248 339.432 5.608C338.783 5.27247 338.009 5.08159 337.305 5.31398C336.6 5.54638 336.039 6.26497 336.183 6.98206C336.382 7.09741 336.688 6.91301 336.672 6.67629L336.014 6.59965Z" fill="#2515539f"/>
<path d="M173.242 85.4694C173.439 86.4546 174.179 87.3207 175.126 87.6491C175.875 86.9922 176.432 86.0089 176.302 85.019C176.173 84.029 175.194 83.1455 174.222 83.3489C173.245 83.5662 172.799 85.0719 173.628 85.6464L173.242 85.4694Z" fill="#2515539f"/>
<path d="M179.756 98.738C179.862 99.1927 180.189 99.5914 180.617 99.7859C180.713 99.5958 180.822 99.4115 180.842 99.2062C180.862 99.001 180.778 98.769 180.588 98.6734C180.327 98.5488 180.027 98.7192 179.808 98.8907C179.823 98.8149 179.838 98.7391 179.839 98.6575L179.756 98.738Z" fill="#2515539f"/>
<path d="M183.125 98.8097C183.214 98.9123 183.303 99.0148 183.42 99.0474C183.538 99.08 183.677 99.0228 183.796 98.9738C184.113 98.843 184.446 98.7519 184.788 98.6806C184.279 98.4033 183.785 98.1318 183.276 97.8545C183.234 97.8371 183.198 97.8056 183.162 97.7741C183.065 97.6517 183.175 97.4675 183.157 97.3124C183.141 97.0757 182.855 96.9732 182.636 96.9476C180.991 96.756 182.679 98.263 183.125 98.8097Z" fill="#2515539f"/>
<path d="M177.335 93.6258C177.209 93.5734 177.081 93.4872 177.004 93.3566C177.333 93.1979 177.719 93.3749 178.037 93.5567C178.208 93.6604 178.408 93.8096 178.374 94.009C178.35 94.1466 178.228 94.2435 178.161 94.3636C178.023 94.6179 178.071 95.0155 177.797 95.0821C177.644 95.1335 177.479 95.0158 177.408 94.8712C177.337 94.7267 177.359 94.5552 177.355 94.406C177.372 94.0515 177.396 93.7168 177.412 93.3623L177.335 93.6258Z" fill="#2515539f"/>
<path d="M179.469 88.5369C179.584 88.8144 180.042 88.6603 180.111 88.3769C180.179 88.0935 180.003 87.8066 179.837 87.5735C179.483 87.7544 179.255 88.1848 179.303 88.5825L179.469 88.5369Z" fill="#2515539f"/>
<path d="M183.157 93.602C183.114 93.4691 183.24 93.3244 183.367 93.2952C183.494 93.266 183.634 93.3242 183.749 93.4046C183.813 93.4477 183.871 93.5048 183.904 93.5841C183.983 93.7485 183.87 93.9806 183.698 94.0402C183.525 94.0997 183.313 93.9785 183.253 93.806C183.194 93.6334 183.301 93.4153 183.465 93.3359L183.157 93.602Z" fill="#2515539f"/>
<path d="M181.819 94.8841C181.564 95.0242 181.603 95.4837 181.889 95.5861C182.019 95.5091 182.133 95.3925 182.178 95.2467C182.222 95.1009 182.182 94.9201 182.054 94.8339C181.925 94.7477 181.721 94.8434 181.711 94.9868L181.819 94.8841Z" fill="#2515539f"/>
<path d="M176.637 98.9343C176.607 99.283 176.734 99.6479 176.995 99.888C177.17 99.6652 177.351 99.4284 177.526 99.2056C177.606 99.0913 177.7 98.9828 177.705 98.8533C177.748 98.5921 177.467 98.3602 177.196 98.379C176.94 98.4036 176.725 98.6427 176.668 98.8981L176.637 98.9343Z" fill="#2515539f"/>
<path d="M182.981 89.489C182.933 89.2885 183.02 89.0785 183.174 88.9455C183.336 88.8323 183.573 88.8159 183.743 88.9196C183.863 88.986 183.957 89.1562 183.862 89.2647C183.825 89.3148 183.771 89.3254 183.712 89.3499C183.466 89.4281 183.22 89.5064 182.974 89.5846C182.963 89.531 182.961 89.4972 182.951 89.4436L182.981 89.489Z" fill="#2515539f"/>
<path d="M186.11 86.9816C186.36 86.971 186.505 86.7027 186.59 86.4589C186.675 86.2152 186.777 85.9294 187.017 85.8652C187.091 85.8465 187.167 85.8616 187.217 85.8989C187.347 86.019 187.212 86.2254 187.17 86.405C187.132 86.5368 187.169 86.6837 187.159 86.8272C187.149 87.1677 186.919 87.4827 186.594 87.5936C186.408 87.5657 186.256 87.42 186.21 87.2533C186.17 87.0725 186.232 86.8847 186.38 86.7657L186.11 86.9816Z" fill="#2515539f"/>
<path d="M111.718 146.827C111.969 146.816 112.113 146.548 112.198 146.304C112.283 146.061 112.386 145.775 112.626 145.711C112.699 145.692 112.761 145.701 112.825 145.744C112.956 145.864 112.821 146.071 112.779 146.25C112.741 146.382 112.778 146.529 112.767 146.673C112.757 147.013 112.528 147.328 112.202 147.439C112.017 147.411 111.864 147.265 111.819 147.099C111.779 146.918 111.84 146.73 111.989 146.611L111.718 146.827Z" fill="#2515539f"/>
<path d="M187.656 88.9878C187.728 89.0508 187.794 89.1277 187.867 89.1906C188.019 89.1393 188.123 88.9689 188.106 88.8138C188.074 88.6529 187.909 88.5352 187.743 88.5808C187.59 88.6322 187.517 88.8479 187.613 88.9703L187.656 88.9878Z" fill="#2515539f"/>
<path d="M194.179 86.9242C194.251 86.9872 194.318 87.0641 194.39 87.127C194.543 87.0756 194.647 86.9054 194.629 86.7503C194.597 86.5894 194.433 86.4716 194.266 86.5172C194.113 86.5686 194.04 86.7844 194.137 86.9068L194.179 86.9242Z" fill="#2515539f"/>
<path d="M180.415 96.4833C180.362 96.2968 180.083 96.2957 179.935 96.4148C179.787 96.5338 179.705 96.7297 179.585 96.8604C179.445 96.9992 179.247 97.0809 179.042 97.0612C178.932 97.0484 178.801 97.01 178.765 96.8969C178.727 96.8316 178.748 96.7418 178.743 96.6742C178.799 96.3033 178.895 95.9162 179.14 95.6408C179.378 95.3457 179.78 95.1682 180.142 95.2858C180.386 95.3708 180.591 95.5876 180.63 95.85C180.674 96.0984 180.572 96.3841 180.372 96.5475L180.415 96.4833Z" fill="#2515539f"/>
<path d="M180.387 101.562C180.384 101.807 180.615 102.001 180.846 101.999C181.077 101.997 181.296 101.825 181.397 101.621C181.438 101.523 181.457 101.399 181.384 101.336C181.32 101.293 181.247 101.312 181.179 101.317C180.891 101.378 180.603 101.438 180.315 101.499L180.387 101.562Z" fill="#293094"/>
<path d="M175.425 89.4156C175.494 88.9351 176.126 88.6398 176.545 88.8962C176.427 89.2577 176.318 89.6391 176.021 89.8771C175.725 90.1151 175.23 90.1224 175.037 89.7959C175.077 89.5825 175.116 89.3691 175.17 89.1615L175.425 89.4156Z" fill="#2515539f"/>
<path d="M188.92 85.0807C188.879 84.9816 188.96 84.8673 189.059 84.8264C189.172 84.7914 189.27 84.8321 189.382 84.8787C189.466 84.9137 189.544 84.9626 189.597 85.0337C189.702 85.1759 189.696 85.387 189.576 85.5177C189.456 85.6483 189.269 85.702 189.09 85.6601C189 85.6392 188.922 85.5903 188.883 85.525C188.845 85.4597 188.857 85.3501 188.928 85.2976L188.92 85.0807Z" fill="#2515539f"/>
<path d="M184.326 95.845C184.398 95.9079 184.485 95.9767 184.551 96.0536C184.673 95.9568 184.793 95.8261 184.81 95.6686C184.826 95.5112 184.651 95.3399 184.52 95.4169C184.475 95.4472 184.438 95.4974 184.414 95.5534C184.33 95.7155 184.241 95.8917 184.171 96.0596L184.326 95.845Z" fill="#2515539f"/>
<path d="M171.387 83.811C171.529 83.9031 171.677 83.9812 171.82 84.0732C171.908 83.9787 171.988 83.8644 172.035 83.7524C171.886 83.5589 171.557 83.5206 171.377 83.6758L171.387 83.811Z" fill="#2515539f"/>
<path d="M190.814 80.0562C191.012 81.0415 191.751 81.9076 192.698 82.236C193.448 81.5791 194.005 80.5958 193.875 79.6058C193.745 78.6158 192.766 77.7324 191.795 77.9357C190.818 78.1531 190.372 79.6587 191.2 80.2332L190.814 80.0562Z" fill="#2515539f"/>
<path d="M200.729 88.1888C200.686 88.0559 200.812 87.9112 200.939 87.882C201.066 87.8528 201.206 87.911 201.321 87.9914C201.385 88.0345 201.443 88.0916 201.476 88.1709C201.555 88.3353 201.442 88.5674 201.27 88.627C201.097 88.6865 200.885 88.5654 200.825 88.3928C200.766 88.2203 200.873 88.0021 201.037 87.9227L200.729 88.1888Z" fill="#2515539f"/>
<path d="M200.547 84.0897C200.499 83.8892 200.586 83.6792 200.74 83.5462C200.902 83.433 201.139 83.4166 201.309 83.5203C201.429 83.5867 201.523 83.7569 201.428 83.8654C201.391 83.9156 201.337 83.9261 201.278 83.9506C201.032 84.0288 200.786 84.1071 200.54 84.1853C200.529 84.1317 200.527 84.0979 200.517 84.0443L200.547 84.0897Z" fill="#2515539f"/>
<path d="M117.714 145.004C117.965 144.993 118.11 144.725 118.195 144.481C118.28 144.237 118.382 143.952 118.622 143.887C118.696 143.869 118.772 143.884 118.822 143.921C118.952 144.041 118.817 144.248 118.775 144.427C118.737 144.559 118.774 144.706 118.764 144.849C118.753 145.19 118.524 145.505 118.199 145.616C118.013 145.588 117.86 145.442 117.815 145.276C117.775 145.095 117.837 144.907 117.985 144.788L117.714 145.004Z" fill="#2515539f"/>
<path d="M205.222 83.5884C205.294 83.6514 205.361 83.7283 205.433 83.7912C205.586 83.7398 205.689 83.5696 205.672 83.4145C205.654 83.2594 205.476 83.1359 205.309 83.1814C205.156 83.2328 205.083 83.4486 205.18 83.571L205.222 83.5884Z" fill="#2515539f"/>
<path d="M211.745 81.5249C211.818 81.5879 211.884 81.6648 211.956 81.7277C212.109 81.6764 212.213 81.506 212.195 81.351C212.164 81.19 211.999 81.0724 211.833 81.1179C211.68 81.1693 211.606 81.3851 211.703 81.5075L211.745 81.5249Z" fill="#2515539f"/>
<path d="M193.012 84.0084C193.08 83.5279 193.712 83.2326 194.131 83.489C194.013 83.8505 193.904 84.2319 193.608 84.4699C193.312 84.7079 192.816 84.7152 192.623 84.3887C192.663 84.1753 192.702 83.9619 192.756 83.7543L193.012 84.0084Z" fill="#2515539f"/>
<path d="M206.5 79.6873C206.46 79.5882 206.54 79.4738 206.639 79.433C206.752 79.398 206.85 79.4387 206.962 79.4853C207.046 79.5203 207.124 79.5692 207.177 79.6403C207.282 79.7825 207.276 79.9936 207.156 80.1242C207.036 80.2549 206.849 80.3087 206.67 80.2668C206.58 80.2458 206.502 80.1969 206.463 80.1316C206.425 80.0663 206.438 79.9567 206.509 79.9042L206.5 79.6873Z" fill="#2515539f"/>
<path d="M188.973 78.4035C189.115 78.4955 189.263 78.5736 189.406 78.6656C189.494 78.5711 189.575 78.4568 189.621 78.3449C189.472 78.1514 189.143 78.113 188.963 78.2682L188.973 78.4035Z" fill="#2515539f"/>
<path d="M207.031 92.4198C207.174 92.5119 207.322 92.5899 207.464 92.682C207.553 92.5875 207.633 92.4732 207.68 92.3612C207.53 92.1677 207.201 92.1293 207.022 92.2845L207.031 92.4198Z" fill="#2515539f"/>
<path d="M65.5567 52.1938C63.5744 51.389 61.4248 51.0339 59.3025 51.1895C58.9564 51.2053 58.6132 51.2622 58.3097 51.4156C57.7196 51.7294 57.4631 52.4417 57.4266 53.1057C57.3323 54.7244 58.4339 56.3015 59.9253 56.942C61.4166 57.5826 63.2254 57.3164 64.5869 56.4447C65.3301 55.9549 65.9837 55.2481 66.1706 54.367C66.3574 53.4859 65.9058 52.459 65.0672 52.17C64.8289 52.3105 64.8433 52.756 65.0987 52.8623L65.5567 52.1938Z" fill="#2515539f"/>
<path d="M66.3524 84.3666C66.1921 84.3199 66.0318 84.2732 65.8871 84.3328C65.7424 84.3925 65.6517 84.5145 65.5539 84.6536C65.3129 84.9928 65.0378 85.3178 64.7357 85.6116C65.4351 85.563 66.1416 85.4975 66.824 85.4418C66.8822 85.446 66.9304 85.4262 66.9815 85.4474C67.1589 85.5012 67.1689 85.7651 67.2867 85.914C67.4585 86.1253 67.8188 86.0755 68.0741 85.942C69.9052 85.0459 67.1811 84.6315 66.3524 84.3666Z" fill="#2515539f"/>
<path d="M98.0381 52.146C97.8366 52.1021 97.6422 52.0412 97.4407 51.9973C97.37 52.4073 97.4936 52.8783 97.8611 53.0512C98.2216 53.2411 98.7705 52.9301 98.7178 52.5287C98.6836 52.2748 98.5175 51.906 98.7544 51.8647L98.0381 52.146Z" fill="#2515539f"/>
<path d="M76.1404 6.11824C76.2611 6.30829 76.5943 6.22723 76.7134 6.03707C76.8325 5.84691 76.8566 5.59724 76.9657 5.38297C77.0749 5.1687 77.2791 5.01396 77.5231 4.95568C77.6536 4.93008 77.811 4.93566 77.9089 5.03634C77.9799 5.10582 77.9956 5.21224 78.0013 5.29452C78.0739 5.74421 78.0911 6.23081 77.9211 6.63947C77.7439 7.06517 77.3383 7.41574 76.8829 7.40603C76.5679 7.39483 76.2657 7.20913 76.1052 6.92263C75.9618 6.64321 75.9702 6.28713 76.1417 6.01891L76.1404 6.11824Z" fill="#2515539f"/>
<path d="M31.6294 92.0115C31.7501 92.2016 32.0834 92.1206 32.2025 91.9304C32.3216 91.7402 32.3456 91.4905 32.4547 91.2762C32.5639 91.062 32.7681 90.9072 33.0121 90.849C33.1426 90.8234 33.3 90.8289 33.3979 90.9296C33.4689 90.9991 33.4846 91.1055 33.4903 91.1878C33.5629 91.6375 33.5801 92.1241 33.4101 92.5327C33.24 92.9414 32.8274 93.3091 32.372 93.2994C32.057 93.2882 31.7548 93.1024 31.5943 92.8159C31.4509 92.5365 31.4592 92.1804 31.6307 91.9122L31.6294 92.0115Z" fill="#2515539f"/>
<path d="M129.388 93.3173C129.508 93.5074 129.842 93.4263 129.961 93.2362C130.08 93.046 130.104 92.7963 130.213 92.582C130.322 92.3678 130.526 92.213 130.77 92.1547C130.901 92.1291 131.058 92.1348 131.156 92.2354C131.227 92.3049 131.243 92.4113 131.249 92.4936C131.321 92.9433 131.338 93.4299 131.168 93.8386C130.991 94.2643 130.586 94.6148 130.13 94.6051C129.815 94.5939 129.513 94.4082 129.353 94.1217C129.209 93.8423 129.217 93.4862 129.389 93.218L129.388 93.3173Z" fill="#2515539f"/>
<path d="M107.622 94.7873C107.416 94.5618 107.21 94.3364 106.921 94.2159C106.648 94.1025 106.292 94.0942 106.076 94.3241C105.969 94.4391 105.912 94.5753 105.906 94.7328C105.856 95.191 106.25 95.6349 106.706 95.6446C107.161 95.6544 107.588 95.2526 107.58 94.7901L107.622 94.7873Z" fill="#2515539f"/>
<path d="M15.6136 110.337C15.4745 110.239 15.3255 110.118 15.1581 110.088C14.9907 110.058 14.7779 110.089 14.6971 110.236C14.5397 110.47 14.7442 110.795 14.723 111.085C14.6848 111.369 14.4211 111.619 14.4822 111.904C14.5504 112.172 14.9293 112.27 15.1846 112.136C15.4399 112.003 15.5773 111.721 15.6666 111.458C15.7658 111.22 15.8309 110.967 15.7967 110.713C15.7625 110.459 15.5397 110.227 15.2759 110.237L15.6136 110.337Z" fill="#2515539f"/>
<path d="M1.09579 91.6513C1.17956 91.786 1.11149 91.9974 0.959722 92.0741C0.807958 92.1508 0.633469 92.1381 0.473135 92.0914C0.387997 92.0559 0.285879 92.0134 0.214912 91.9439C0.0630344 91.7809 0.108244 91.4801 0.28835 91.3353C0.478398 91.2146 0.762183 91.2528 0.89989 91.4499C1.0376 91.647 0.982443 91.9237 0.819365 92.0756L1.09579 91.6513Z" fill="#2515539f"/>
<path d="M9.55838 87.7816C9.45484 87.8384 9.35131 87.8952 9.24777 87.952C9.24503 88.1506 9.40687 88.3378 9.5984 88.3576C9.78993 88.3774 9.99416 88.2226 9.9969 88.024C9.99965 87.8254 9.76547 87.668 9.5896 87.7547L9.55838 87.7816Z" fill="#2515539f"/>
<path d="M99.3144 20.9951C99.0887 20.7214 98.5909 21.0536 98.6237 21.4068C98.6565 21.7601 98.9474 22.0209 99.2355 22.2407C99.5999 21.893 99.6932 21.3325 99.5043 20.8744L99.3144 20.9951Z" fill="#2515539f"/>
<path d="M95.9984 32.1803C96.1191 32.3703 96.4524 32.2893 96.5714 32.0991C96.6905 31.9089 96.7146 31.6593 96.8238 31.445C96.9329 31.2307 97.1371 31.076 97.3811 31.0177C97.5116 30.9921 97.669 30.9977 97.767 31.0984C97.8379 31.1678 97.8536 31.2743 97.8594 31.3565C97.9319 31.8062 97.9492 32.2928 97.7791 32.7015C97.602 33.1272 97.1964 33.4778 96.741 33.4681C96.4261 33.4569 96.1237 33.2712 95.9633 32.9847C95.8198 32.7052 95.8282 32.3492 95.9997 32.0809L95.9984 32.1803Z" fill="#2515539f"/>
<path d="M41.2854 123.197C40.4148 121.257 39.0789 119.522 37.4297 118.157C37.1587 117.944 36.8876 117.731 36.5499 117.631C35.9015 117.461 35.2292 117.78 34.74 118.236C33.5602 119.343 33.2631 121.257 33.9036 122.742C34.5441 124.227 36.04 125.289 37.6319 125.592C38.5031 125.755 39.4734 125.679 40.2067 125.165C40.9399 124.651 41.3309 123.615 40.9206 122.825C40.6439 122.77 40.3688 123.095 40.4612 123.353L41.2854 123.197Z" fill="#293094"/>
<path d="M76.0692 68.7934C75.4983 67.7169 74.3233 66.9882 73.1117 66.9236C72.4809 67.9595 72.185 69.2946 72.7006 70.4081C73.2161 71.5215 74.6521 72.199 75.7187 71.604C76.7853 71.0091 76.7673 69.0839 75.6009 68.7184L76.0692 68.7934Z" fill="#2515539f"/>
<path d="M130.602 42.8239C130.032 41.7474 128.857 41.0187 127.645 40.954C127.014 41.99 126.718 43.3251 127.234 44.4386C127.732 45.5449 129.185 46.2295 130.252 45.6345C131.319 45.0396 131.301 43.1144 130.134 42.7489L130.602 42.8239Z" fill="#293094"/>
<path d="M63.7243 55.6862C63.4503 55.1926 62.9139 54.8496 62.3634 54.7803C62.3153 55.04 62.2572 55.2755 62.3084 55.5365C62.3667 55.7805 62.5413 56.0329 62.7839 56.0739C63.1187 56.1334 63.4108 55.8154 63.6235 55.5444C63.6463 55.6337 63.6449 55.7331 63.6677 55.8224L63.7243 55.6862Z" fill="#2515539f"/>
<path d="M59.7837 56.8031C59.6616 56.7123 59.4984 56.6244 59.3509 56.643C59.2034 56.6615 59.0615 56.7622 58.9438 56.8531C58.6148 57.1157 58.2588 57.3471 57.8929 57.5544C58.5725 57.6974 59.2522 57.8404 59.9559 57.9734C60.0141 57.9776 60.0651 57.9989 60.1162 58.0201C60.2723 58.125 60.2072 58.3776 60.2867 58.5705C60.3961 58.8357 60.7451 58.8611 61.0231 58.817C63.0148 58.4472 60.4961 57.2993 59.7837 56.8031Z" fill="#2515539f"/>
<path d="M56.4648 43.6564C56.2633 43.6125 56.0689 43.5516 55.8674 43.5077C55.7967 43.9177 55.9204 44.3887 56.2879 44.5616C56.6484 44.7515 57.1972 44.4406 57.1445 44.0391C57.1103 43.7852 56.9442 43.4164 57.1811 43.3751L56.4648 43.6564Z" fill="#2515539f"/>
<path d="M68.3775 60.7785C68.552 60.7911 68.7222 60.862 68.8613 60.9598C68.5351 61.2636 68.0258 61.1915 67.5888 61.0895C67.3533 61.0315 67.0567 60.928 67.0225 60.6741C66.9941 60.5025 67.1161 60.3535 67.1458 60.186C67.2222 59.8583 67.0162 59.393 67.3098 59.2155C67.4757 59.1048 67.7042 59.1799 67.8391 59.3359C67.9569 59.4848 68.0194 59.6706 68.0578 59.8664C68.1686 60.2721 68.2724 60.6948 68.3663 61.0934L68.3775 60.7785Z" fill="#2515539f"/>
<path d="M67.7164 67.4551C67.4907 67.1814 66.9928 67.5136 67.0256 67.8669C67.0584 68.2201 67.3494 68.481 67.6375 68.7008C68.0019 68.353 68.0953 67.7926 67.9064 67.3345L67.7164 67.4551Z" fill="#2515539f"/>
<path d="M61.6211 62.9011C61.7048 63.0359 61.6368 63.2472 61.485 63.3239C61.3332 63.4006 61.1587 63.3879 60.9984 63.3412C60.9133 63.3058 60.8111 63.2633 60.7402 63.1938C60.5883 63.0307 60.6335 62.7299 60.8136 62.5851C61.0037 62.4644 61.2875 62.5026 61.4252 62.6998C61.5629 62.8969 61.5077 63.1736 61.3446 63.3255L61.6211 62.9011Z" fill="#2515539f"/>
<path d="M62.7068 60.9161C62.9535 60.6592 62.7276 60.1457 62.3786 60.1204C62.2567 60.2694 62.1688 60.4326 62.149 60.6241C62.1534 60.8057 62.2499 61.0057 62.4344 61.0425C62.6188 61.0793 62.8302 60.9075 62.7847 60.7288L62.7068 60.9161Z" fill="#2515539f"/>
<path d="M62.5409 36.7358C62.7876 36.4789 62.5618 35.9654 62.2127 35.94C62.0908 36.089 62.0029 36.2522 61.9831 36.4438C61.9875 36.6253 62.084 36.8253 62.2614 36.8791C62.4458 36.9159 62.6572 36.7442 62.6117 36.5655L62.5409 36.7358Z" fill="#2515539f"/>
<path d="M67.2949 54.3553C67.2081 53.9397 66.9256 53.5624 66.541 53.3824C66.4235 53.713 66.2889 54.0366 66.1713 54.3672C66.1075 54.5204 66.0607 54.6808 66.0722 54.8453C66.1191 55.1645 66.5278 55.3346 66.8342 55.2224C67.1236 55.1031 67.2894 54.7525 67.2665 54.4234L67.2949 54.3553Z" fill="#2515539f"/>
<path d="M63.3033 67.5964C63.4339 67.8105 63.4128 68.1014 63.2696 68.3015C63.1264 68.5016 62.844 68.6038 62.6085 68.5458C62.4482 68.499 62.2721 68.3459 62.343 68.1756C62.3713 68.1075 62.4267 68.0706 62.4891 68.0167C62.7416 67.842 63.001 67.6504 63.2535 67.4757C63.2734 67.524 63.2933 67.5722 63.3302 67.6275L63.3033 67.5964Z" fill="#2515539f"/>
<path d="M60.5581 71.6479C60.2588 71.7431 60.1852 72.112 60.191 72.434C60.1798 72.749 60.1716 73.1051 59.9021 73.2726C59.8227 73.3195 59.7333 73.3422 59.6652 73.3139C59.4609 73.2289 59.5473 72.9252 59.533 72.7195C59.5215 72.5549 59.4279 72.3961 59.3824 72.2174C59.2715 71.8117 59.4387 71.3618 59.7776 71.1233C59.9904 71.092 60.2218 71.2083 60.3424 71.3983C60.4631 71.5884 60.4561 71.8452 60.32 72.0282L60.5581 71.6479Z" fill="#2515539f"/>
<path d="M113.296 88.399C112.997 88.4942 112.923 88.8631 112.929 89.1851C112.918 89.5 112.91 89.8562 112.64 90.0237C112.561 90.0706 112.471 90.0933 112.403 90.0649C112.199 89.9799 112.285 89.6763 112.271 89.4706C112.267 89.289 112.166 89.1471 112.12 88.9684C112.009 88.5627 112.177 88.1129 112.516 87.8744C112.728 87.8431 112.96 87.9593 113.08 88.1494C113.201 88.3394 113.194 88.5962 113.058 88.7793L113.296 88.399Z" fill="#2515539f"/>
<path d="M58.0454 69.863C57.9503 69.8034 57.8311 69.7538 57.736 69.6943C57.5871 69.8121 57.5121 70.0406 57.5987 70.2165C57.6853 70.3923 57.9308 70.4745 58.0967 70.3638C58.2626 70.253 58.2597 69.9721 58.1036 69.8672L58.0454 69.863Z" fill="#2515539f"/>
<path d="M63.7838 58.5673C63.9045 58.7574 64.2379 58.6764 64.357 58.4862C64.476 58.2961 64.5 58.0464 64.6092 57.8321C64.7183 57.6178 64.9225 57.4631 65.1665 57.4048C65.297 57.3792 65.4544 57.3848 65.5524 57.4855C65.6233 57.5549 65.639 57.6614 65.6448 57.7436C65.7173 58.1933 65.7346 58.6799 65.5645 59.0886C65.3874 59.5143 64.9818 59.8649 64.5264 59.8552C64.2115 59.844 63.9091 59.6582 63.7487 59.3717C63.6052 59.0923 63.6136 58.7362 63.7851 58.468L63.7838 58.5673Z" fill="#2515539f"/>
<path d="M61.992 52.6481C61.9068 52.3729 61.5734 52.2142 61.2982 52.2994C61.023 52.3847 60.8273 52.6629 60.7892 52.9466C60.7736 53.08 60.7921 53.2275 60.9113 53.2771C60.9965 53.3125 61.0759 53.2657 61.1553 53.2188C61.4659 53.0484 61.7765 52.878 62.0871 52.7076L61.992 52.6481Z" fill="#2515539f"/>
<path d="M72.1005 64.9844C72.1987 65.5646 71.5605 66.138 70.9872 65.9794C70.9799 65.5169 70.9968 65.0445 71.242 64.6472C71.4972 64.2739 72.0787 64.0764 72.4066 64.3927C72.4337 64.6636 72.4679 64.9175 72.4779 65.1814L72.1005 64.9844Z" fill="#2515539f"/>
<path d="M57.9525 74.8384C58.0505 74.9391 57.9967 75.1165 57.8861 75.1903C57.7754 75.2642 57.635 75.2657 57.5016 75.2501C57.3853 75.2417 57.276 75.2161 57.1979 75.1637C57.0248 75.0517 56.9566 74.7836 57.0586 74.5863C57.1436 74.382 57.3507 74.2684 57.5564 74.2541C57.6628 74.2385 57.7721 74.264 57.8431 74.3335C57.914 74.4029 57.9397 74.5335 57.8702 74.6044L57.9525 74.8384Z" fill="#2515539f"/>
<path d="M59.4664 60.6863C59.3472 60.6367 59.2451 60.5942 59.133 60.5276C59.0281 60.6837 58.926 60.8809 58.9715 61.0596C59.0099 61.2554 59.2752 61.3858 59.3972 61.2368C59.4425 61.1757 59.4538 61.1005 59.4652 61.0253C59.4991 60.7997 59.5331 60.5742 59.567 60.3486L59.4664 60.6863Z" fill="#2515539f"/>
<path d="M64.0895 48.0876C63.8837 47.8622 63.6779 47.6367 63.3884 47.5162C63.116 47.4029 62.7599 47.3945 62.5443 47.6245C62.4366 47.7394 62.3799 47.8756 62.3743 48.0331C62.3234 48.4914 62.7181 48.9353 63.1735 48.945C63.6289 48.9547 64.0557 48.553 64.0484 48.0905L64.0895 48.0876Z" fill="#2515539f"/>
<path d="M78.7947 70.0674C78.5932 70.0235 78.3989 69.9626 78.1974 69.9188C78.1166 70.0649 78.0769 70.2082 78.0713 70.3657C78.3154 70.5472 78.7069 70.4704 78.8714 70.2192L78.7947 70.0674Z" fill="#293094"/>
<path d="M106.969 92.6581C106.67 92.7532 106.597 93.1222 106.602 93.4442C106.591 93.7592 106.583 94.1152 106.313 94.2828C106.234 94.3296 106.145 94.3524 106.076 94.324C105.872 94.239 105.959 93.9354 105.944 93.7297C105.933 93.5651 105.839 93.4063 105.794 93.2275C105.683 92.8218 105.85 92.372 106.189 92.1335C106.402 92.1022 106.633 92.2184 106.754 92.4085C106.874 92.5985 106.867 92.8553 106.731 93.0384L106.969 92.6581Z" fill="#2515539f"/>
<path d="M32.6898 87.159C32.5947 87.0994 32.4755 87.0498 32.3805 86.9903C32.2315 87.1081 32.1564 87.3365 32.243 87.5124C32.3297 87.6883 32.5752 87.7705 32.7411 87.6597C32.9071 87.549 32.904 87.2681 32.7479 87.1632L32.6898 87.159Z" fill="#2515539f"/>
<path d="M39.4545 87.4171C39.5524 87.5178 39.4815 87.6881 39.3879 87.769C39.2773 87.8428 39.1369 87.8443 39.0035 87.8288C38.8872 87.8203 38.7779 87.7948 38.6999 87.7424C38.5267 87.6304 38.4585 87.3623 38.5606 87.165C38.6456 86.9607 38.8527 86.8471 39.0584 86.8328C39.1648 86.8172 39.274 86.8426 39.3449 86.9121C39.4159 86.9816 39.4415 87.1121 39.372 87.1831L39.4545 87.4171Z" fill="#2515539f"/>
<path d="M60.3042 82.629C60.1027 82.5851 59.9083 82.5242 59.7068 82.4803C59.626 82.6265 59.5863 82.7698 59.5807 82.9273C59.8248 83.1087 60.2163 83.0319 60.3808 82.7807L60.3042 82.629Z" fill="#2515539f"/>
<path d="M66.912 284.496C68.037 282.689 68.7194 280.605 68.9223 278.484C68.9592 278.133 68.9776 277.783 68.8669 277.469C68.6456 276.842 68.0001 276.455 67.3546 276.308C65.7685 275.957 64.0349 276.769 63.1681 278.152C62.3012 279.517 62.2459 281.342 62.9099 282.836C63.2603 283.648 63.8689 284.422 64.6988 284.736C65.5288 285.05 66.6169 284.791 67.0411 283.998C66.9304 283.74 66.5063 283.685 66.3403 283.924L66.912 284.496Z" fill="#2515539f"/>
<path d="M35.0422 279.996C35.1159 279.848 35.1897 279.701 35.1528 279.535C35.1159 279.387 35.0053 279.277 34.8946 279.166C34.5995 278.871 34.3229 278.557 34.0831 278.207C34.0278 278.908 33.9725 279.609 33.8987 280.291C33.8987 280.346 33.8803 280.402 33.8618 280.457C33.7696 280.623 33.5114 280.586 33.3454 280.678C33.1056 280.807 33.1056 281.176 33.1979 281.453C33.788 283.408 34.6364 280.771 35.0422 279.996Z" fill="#2515539f"/>
<path d="M61.6187 316.532C61.7109 316.347 61.7847 316.163 61.8769 315.96C61.4896 315.812 60.9916 315.868 60.7519 316.2C60.5121 316.532 60.715 317.122 61.1207 317.122C61.3789 317.122 61.7662 317.011 61.7662 317.269L61.6187 316.532Z" fill="#2515539f"/>
<path d="M33.1795 244.493C32.9582 244.586 32.9951 244.917 33.1795 245.083C33.3455 245.249 33.5853 245.305 33.7697 245.434C33.9541 245.581 34.0832 245.803 34.1017 246.043C34.1017 246.19 34.0648 246.338 33.9541 246.411C33.8804 246.467 33.7697 246.467 33.6775 246.467C33.2164 246.467 32.7553 246.411 32.3496 246.153C31.9438 245.895 31.6856 245.452 31.7594 245.01C31.8147 244.696 32.0545 244.42 32.368 244.327C32.6631 244.235 33.032 244.309 33.2533 244.512L33.1795 244.493Z" fill="#2515539f"/>
<path d="M15.8801 340.711C15.6588 340.803 15.6957 341.135 15.8801 341.301C16.0461 341.467 16.2858 341.522 16.4703 341.651C16.6547 341.799 16.7838 342.02 16.8022 342.26C16.8022 342.407 16.7653 342.555 16.6547 342.629C16.5809 342.684 16.4703 342.684 16.378 342.684C15.917 342.684 15.4559 342.629 15.0501 342.37C14.6628 342.131 14.3862 341.67 14.46 341.227C14.5153 340.913 14.7551 340.637 15.0686 340.545C15.3637 340.452 15.7325 340.526 15.9539 340.729L15.8801 340.711Z" fill="#2515539f"/>
<path d="M29.362 371.529C29.8784 372.064 30.6161 372.377 31.3723 372.377C31.5014 372.377 31.6489 372.359 31.7227 372.266C31.9256 372.064 31.6674 371.75 31.5198 371.492C31.2985 371.068 31.4461 370.496 31.2248 370.072C31.0403 369.721 30.6346 369.537 30.2842 369.389C29.7493 369.168 28.9932 369.021 28.735 369.537C28.6059 369.795 28.6981 370.127 28.8087 370.404C29.0485 370.975 29.3989 371.51 29.8046 371.99L29.362 371.529Z" fill="#2515539f"/>
<path d="M18.0008 319.003C18.259 318.837 18.5172 318.671 18.6832 318.413C18.8492 318.155 18.9045 317.804 18.7201 317.564C18.6279 317.435 18.4988 317.362 18.3513 317.325C17.9086 317.214 17.4107 317.528 17.3184 317.97C17.2262 318.413 17.5582 318.911 18.0193 318.966L18.0008 319.003Z" fill="#2515539f"/>
<path d="M62.0427 268.377C64.1083 267.824 66.0264 266.809 67.6309 265.408C67.8891 265.186 68.1473 264.947 68.2949 264.633C68.5715 264.024 68.3687 263.305 67.9814 262.752C67.0776 261.406 65.2518 260.797 63.6657 261.203C62.0796 261.59 60.807 262.881 60.2537 264.412C59.9586 265.26 59.848 266.219 60.2353 267.012C60.6226 267.824 61.5816 268.377 62.43 268.1C62.5407 267.842 62.264 267.51 61.9874 267.565L62.0427 268.377Z" fill="#2515539f"/>
<path d="M79.2872 269.945C80.4491 269.557 81.3529 268.525 81.6111 267.326C80.6889 266.533 79.4163 266.016 78.236 266.348C77.0556 266.662 76.1519 267.99 76.5577 269.133C76.9634 270.277 78.863 270.572 79.4163 269.484L79.2872 269.945Z" fill="#2515539f"/>
<path d="M81.666 317.804C81.4447 317.896 81.4815 318.228 81.666 318.394C81.832 318.56 82.0717 318.616 82.2561 318.745C82.4406 318.892 82.5697 319.114 82.5881 319.353C82.5881 319.501 82.5512 319.649 82.4406 319.722C82.3668 319.778 82.2562 319.778 82.1639 319.778C81.7029 319.778 81.2233 319.722 80.836 319.464C80.4487 319.224 80.1721 318.763 80.2459 318.321C80.3012 318.007 80.5409 317.73 80.8545 317.638C81.1496 317.546 81.5184 317.62 81.7397 317.823L81.666 317.804Z" fill="#2515539f"/>
<path d="M48.8005 292.132C49.9624 291.744 50.8662 290.712 51.1244 289.513C50.2022 288.72 48.9296 288.203 47.7493 288.535C46.5689 288.849 45.6652 290.177 46.071 291.32C46.4767 292.464 48.3763 292.759 48.9296 291.671L48.8005 292.132Z" fill="#2515539f"/>
<path d="M65.4916 350.19C66.6535 349.803 67.5572 348.77 67.8154 347.571C66.8932 346.778 65.6207 346.262 64.4403 346.594C63.26 346.907 62.3563 348.235 62.762 349.379C63.1678 350.522 65.0674 350.817 65.6207 349.729L65.4916 350.19Z" fill="#2515539f"/>
<path d="M63.7582 282.117C64.2931 281.914 64.7173 281.453 64.8648 280.918C64.6251 280.826 64.3853 280.734 64.1271 280.752C63.8689 280.752 63.6107 280.9 63.5185 281.14C63.4078 281.472 63.666 281.804 63.9058 282.043C63.8136 282.043 63.7214 282.043 63.6107 282.043L63.7582 282.117Z" fill="#2515539f"/>
<path d="M63.2968 278.041C63.4074 277.931 63.5181 277.801 63.5365 277.635C63.555 277.488 63.4628 277.34 63.389 277.211C63.1861 276.842 63.0017 276.455 62.8726 276.068C62.6144 276.713 62.3746 277.377 62.1164 278.023C62.098 278.078 62.0796 278.133 62.0427 278.17C61.9136 278.318 61.6738 278.207 61.4894 278.244C61.2127 278.299 61.1205 278.65 61.1205 278.945C61.1574 280.955 62.7066 278.668 63.2968 278.041Z" fill="#2515539f"/>
<path d="M76.8157 276.916C76.9079 276.732 76.9817 276.547 77.0739 276.344C76.6866 276.197 76.1886 276.252 75.9489 276.584C75.7091 276.916 75.912 277.506 76.3177 277.506C76.5759 277.506 76.9633 277.396 76.9633 277.654L76.8157 276.916Z" fill="#2515539f"/>
<path d="M57.9668 285.861C57.9299 286.027 57.8377 286.174 57.7086 286.304C57.4688 285.935 57.6164 285.437 57.7824 285.031C57.8746 284.81 58.0221 284.533 58.2803 284.552C58.4463 284.552 58.5938 284.699 58.7414 284.754C59.0549 284.883 59.5344 284.754 59.682 285.068C59.7558 285.252 59.6451 285.455 59.4791 285.566C59.3131 285.677 59.1102 285.695 58.9258 285.695C58.5016 285.732 58.0774 285.769 57.6533 285.806L57.9668 285.861Z" fill="#2515539f"/>
<path d="M51.4935 284.127C51.807 283.943 51.5488 283.408 51.1984 283.371C50.848 283.334 50.5345 283.592 50.2763 283.832C50.5529 284.238 51.1062 284.441 51.5857 284.312L51.4935 284.127Z" fill="#2515539f"/>
<path d="M56.9893 278.853C56.8417 278.926 56.6389 278.797 56.5835 278.65C56.5282 278.484 56.5651 278.318 56.6573 278.17C56.7126 278.078 56.768 278.004 56.8417 277.949C57.0262 277.82 57.3212 277.912 57.4135 278.115C57.5057 278.318 57.4135 278.594 57.2106 278.687C57.0077 278.779 56.7311 278.705 56.6204 278.502L56.9893 278.853Z" fill="#2515539f"/>
<path d="M58.7601 280.254C58.9814 280.531 59.5162 280.402 59.59 280.07C59.4609 279.922 59.3134 279.812 59.1289 279.775C58.9445 279.738 58.7416 279.812 58.6679 279.978C58.5941 280.144 58.7232 280.383 58.9076 280.365L58.7601 280.254Z" fill="#2515539f"/>
<path d="M82.6439 284.035C82.8652 284.312 83.4 284.183 83.4738 283.851C83.3447 283.703 83.1972 283.593 83.0127 283.556C82.8283 283.519 82.6254 283.593 82.5517 283.759C82.4779 283.925 82.6254 284.164 82.8099 284.146L82.6439 284.035Z" fill="#2515539f"/>
<path d="M64.4958 285.843C64.92 285.824 65.3442 285.603 65.5839 285.252C65.2888 285.068 64.9753 284.902 64.6802 284.718C64.5327 284.625 64.3851 284.552 64.2192 284.552C63.8872 284.552 63.6474 284.92 63.7212 285.234C63.795 285.547 64.1085 285.769 64.4405 285.787L64.4958 285.843Z" fill="#2515539f"/>
<path d="M52.0836 279.738C51.8438 279.83 51.5672 279.756 51.4012 279.59C51.2352 279.406 51.1799 279.129 51.2721 278.908C51.3459 278.76 51.5303 278.613 51.6778 278.705C51.7332 278.742 51.7701 278.816 51.8069 278.871C51.9361 279.148 52.0836 279.443 52.2127 279.719C52.1574 279.738 52.102 279.756 52.0467 279.775L52.0836 279.738Z" fill="#2515539f"/>
<path d="M48.5426 276.381C48.4872 276.068 48.1368 275.939 47.8417 275.883C47.5467 275.828 47.1778 275.754 47.0671 275.459C47.0302 275.385 47.0302 275.293 47.0671 275.219C47.1778 275.035 47.4544 275.164 47.6757 275.201C47.8417 275.219 48.0262 275.164 48.1921 275.145C48.5979 275.109 49.0221 275.33 49.2065 275.699C49.2065 275.92 49.059 276.123 48.8561 276.215C48.6532 276.289 48.395 276.252 48.2475 276.086L48.5426 276.381Z" fill="#2515539f"/>
<path d="M23.3678 325.661C23.3124 325.348 22.962 325.218 22.6669 325.163C22.3718 325.108 22.003 325.034 21.8923 324.739C21.8554 324.665 21.8554 324.573 21.8923 324.499C22.003 324.315 22.2796 324.444 22.5009 324.481C22.6669 324.499 22.8514 324.444 23.0173 324.425C23.4231 324.388 23.8473 324.61 24.0317 324.979C24.0317 325.2 23.8842 325.403 23.6813 325.495C23.4784 325.569 23.2202 325.532 23.0727 325.366L23.3678 325.661Z" fill="#2515539f"/>
<path d="M50.7003 274.187C50.774 274.094 50.8478 274.002 50.9216 273.91C50.8294 273.744 50.6265 273.633 50.4236 273.689C50.2392 273.744 50.1101 273.984 50.2023 274.15C50.2761 274.334 50.5527 274.371 50.6818 274.223L50.7003 274.187Z" fill="#2515539f"/>
<path d="M47.1595 266.643C47.2333 266.551 47.307 266.459 47.3808 266.367C47.2886 266.201 47.0857 266.09 46.8828 266.145C46.6984 266.201 46.5693 266.441 46.6615 266.607C46.7353 266.791 47.0119 266.828 47.141 266.68L47.1595 266.643Z" fill="#2515539f"/>
<path d="M60.9177 281.693C60.6964 281.785 60.7332 282.117 60.9177 282.283C61.0837 282.449 61.3234 282.504 61.5079 282.634C61.6923 282.781 61.8214 283.002 61.8398 283.242C61.8398 283.39 61.8029 283.537 61.6923 283.611C61.6185 283.666 61.5079 283.666 61.4156 283.666C60.9546 283.666 60.4935 283.611 60.0877 283.353C59.7004 283.113 59.4238 282.652 59.4976 282.209C59.5529 281.896 59.7927 281.619 60.0877 281.527C60.3828 281.435 60.7517 281.508 60.973 281.711L60.9177 281.693Z" fill="#2515539f"/>
<path d="M67.0411 280.881C67.3362 280.844 67.5391 280.531 67.4838 280.254C67.4469 279.959 67.2071 279.738 66.9305 279.646C66.8014 279.609 66.6538 279.609 66.5801 279.719C66.5432 279.793 66.5616 279.885 66.5985 279.978C66.7092 280.31 66.8383 280.642 66.9489 280.974L67.0411 280.881Z" fill="#2515539f"/>
<path d="M53.2088 288.849C52.6186 288.83 52.1575 288.13 52.3973 287.595C52.8399 287.668 53.3194 287.761 53.6514 288.056C53.9834 288.369 54.0756 288.978 53.7067 289.255C53.4485 289.236 53.1719 289.218 52.9137 289.199L53.2088 288.849Z" fill="#2515539f"/>
<path d="M45.7945 273.283C45.6839 273.357 45.5179 273.283 45.4626 273.154C45.4072 273.025 45.4257 272.896 45.4626 272.767C45.4994 272.656 45.5363 272.564 45.6101 272.471C45.7577 272.324 46.0159 272.305 46.2003 272.416C46.3847 272.527 46.4769 272.767 46.4585 272.969C46.44 273.08 46.4032 273.172 46.3294 273.246C46.2556 273.301 46.1081 273.32 46.0527 273.228L45.7945 273.283Z" fill="#2515539f"/>
<path d="M59.5159 277.082C59.5896 276.971 59.645 276.879 59.7188 276.769C59.5712 276.639 59.4052 276.51 59.2208 276.51C59.0364 276.51 58.8519 276.75 58.981 276.898C59.0179 276.953 59.0917 276.971 59.1655 277.008C59.3868 277.082 59.6081 277.156 59.811 277.23L59.5159 277.082Z" fill="#2515539f"/>
<path d="M71.1906 283.721C71.4489 283.555 71.7071 283.39 71.873 283.131C72.039 282.873 72.0944 282.523 71.9099 282.283C71.8177 282.154 71.6886 282.08 71.5411 282.043C71.0984 281.933 70.6005 282.246 70.5083 282.689C70.4161 283.131 70.748 283.629 71.2091 283.685L71.1906 283.721Z" fill="#2515539f"/>
<path d="M47.1037 294.622C47.1775 294.437 47.2697 294.234 47.3435 294.05C47.2144 293.958 47.0668 293.884 46.9193 293.847C46.698 294.068 46.7164 294.456 46.9377 294.658L47.1037 294.622Z" fill="#2515539f"/>
<path d="M39.4315 271.826C40.5934 271.439 41.4971 270.406 41.7553 269.207C40.8332 268.414 39.5606 267.898 38.3803 268.229C37.1999 268.543 36.2962 269.871 36.702 271.014C37.1077 272.158 39.0073 272.453 39.5606 271.365L39.4315 271.826Z" fill="#2515539f"/>
<path d="M47.6205 258.547C47.473 258.621 47.2701 258.492 47.2147 258.344C47.1594 258.178 47.1963 258.012 47.2885 257.865C47.3438 257.772 47.3992 257.699 47.4729 257.643C47.6574 257.514 47.9525 257.606 48.0447 257.809C48.1369 258.012 48.0447 258.289 47.8418 258.381C47.6389 258.473 47.3623 258.399 47.2516 258.197L47.6205 258.547Z" fill="#2515539f"/>
<path d="M42.7143 259.432C42.4746 259.524 42.1979 259.451 42.032 259.285C41.866 259.1 41.8106 258.823 41.9029 258.602C41.9766 258.455 42.1611 258.307 42.3086 258.399C42.3639 258.418 42.3824 258.492 42.4193 258.547C42.5484 258.823 42.6959 259.119 42.825 259.395C42.7697 259.414 42.7143 259.432 42.659 259.451L42.7143 259.432Z" fill="#2515539f"/>
<path d="M20.1955 318.708C20.1402 318.395 19.7898 318.265 19.4947 318.21C19.1996 318.155 18.8307 318.081 18.7201 317.786C18.6832 317.712 18.6832 317.62 18.7201 317.546C18.8307 317.362 19.1074 317.491 19.3287 317.528C19.4947 317.546 19.6791 317.491 19.8451 317.472C20.2508 317.436 20.675 317.657 20.8595 318.026C20.8595 318.247 20.7119 318.45 20.509 318.542C20.3062 318.616 20.048 318.579 19.9004 318.413L20.1955 318.708Z" fill="#2515539f"/>
<path d="M41.3315 253.881C41.4053 253.789 41.479 253.696 41.5528 253.604C41.4606 253.438 41.2577 253.328 41.0549 253.383C40.8704 253.438 40.7413 253.678 40.8335 253.844C40.9073 254.028 41.184 254.065 41.3131 253.918L41.3315 253.881Z" fill="#2515539f"/>
<path d="M37.7901 246.338C37.8639 246.245 37.9377 246.153 38.0114 246.061C37.9192 245.895 37.7163 245.784 37.5135 245.84C37.329 245.895 37.1999 246.135 37.2922 246.301C37.3659 246.485 37.6426 246.522 37.7717 246.375L37.7901 246.338Z" fill="#2515539f"/>
<path d="M43.8395 268.543C43.2493 268.525 42.7883 267.824 43.028 267.289C43.4706 267.363 43.9502 267.455 44.2821 267.75C44.6141 268.063 44.7063 268.672 44.3375 268.949C44.0793 268.93 43.8026 268.912 43.5444 268.893L43.8395 268.543Z" fill="#2515539f"/>
<path d="M36.4254 252.977C36.3147 253.051 36.1488 252.977 36.0934 252.848C36.0381 252.719 36.0565 252.59 36.0934 252.461C36.1303 252.35 36.1672 252.258 36.241 252.166C36.3885 252.018 36.6467 252 36.8311 252.11C37.0156 252.221 37.1078 252.461 37.0893 252.664C37.0709 252.774 37.034 252.866 36.9602 252.94C36.8865 253.014 36.7389 253.014 36.6836 252.922L36.4254 252.977Z" fill="#2515539f"/>
<path d="M37.7352 274.316C37.809 274.131 37.9012 273.928 37.975 273.744C37.8458 273.652 37.6983 273.578 37.5508 273.541C37.3294 273.762 37.3479 274.15 37.5692 274.353L37.7352 274.316Z" fill="#2515539f"/>
<path d="M51.6961 250.266C51.7699 250.081 51.8621 249.879 51.9359 249.694C51.8068 249.602 51.6592 249.528 51.5117 249.491C51.2904 249.713 51.3088 250.1 51.5301 250.303L51.6961 250.266Z" fill="#2515539f"/>
<path d="M134.575 253.529C135.407 253.766 136.238 254.002 137.093 254.249C137.157 254.686 136.545 254.841 136.091 254.816C135.636 254.791 135.182 254.766 134.824 254.508C134.467 254.25 134.334 253.648 134.653 253.343L134.575 253.529Z" fill="#2515539f"/>
<path d="M117.782 255.895C117.885 255.254 117.071 254.778 116.5 255.033C115.929 255.288 115.712 256.072 115.901 256.671C115.986 256.925 116.151 257.185 116.408 257.292C116.795 257.48 117.266 257.266 117.515 256.932C117.763 256.598 117.858 256.173 117.953 255.747L117.782 255.895Z" fill="#2515539f"/>
<path d="M212.717 344.346C211.525 341.69 209.696 339.315 207.438 337.445C207.067 337.154 206.696 336.863 206.233 336.725C205.346 336.493 204.425 336.93 203.755 337.554C202.13 339.093 201.733 341.69 202.61 343.724C203.487 345.757 205.535 347.211 207.715 347.625C208.907 347.848 210.236 347.745 211.24 347.041C212.244 346.337 212.779 344.919 212.217 343.837C211.838 343.762 211.462 344.207 211.588 344.56L212.717 344.346Z" fill="#2515539f"/>
<path d="M208.626 356.674C207.844 355.2 206.236 354.203 204.577 354.114C203.713 355.532 203.308 357.36 204.014 358.885C204.696 360.399 206.686 361.337 208.146 360.522C209.606 359.708 209.582 357.072 207.985 356.571L208.626 356.674Z" fill="#2515539f"/>
<path d="M219.546 336.084C219.082 335.754 218.555 335.507 218.023 335.34C217.953 335.311 217.873 335.306 217.817 335.309C217.751 335.337 217.699 335.397 217.67 335.467C217.47 336.013 217.975 336.77 217.538 337.163C217.453 337.236 217.354 337.277 217.329 337.404C217.284 337.577 217.507 337.697 217.667 337.708C218.58 337.815 219.479 336.903 219.313 335.987C219.373 336.039 219.433 336.091 219.517 336.154L219.546 336.084Z" fill="#2515539f"/>
<path d="M224.829 318.262C223.96 317.654 222.987 317.167 221.969 316.853C221.852 316.804 221.703 316.77 221.594 316.834C221.462 316.888 221.38 317.018 221.332 317.135C220.928 318.17 221.922 319.596 221.1 320.321C220.963 320.455 220.755 320.56 220.7 320.756C220.621 321.078 221.021 321.3 221.353 321.356C223.067 321.576 224.746 319.841 224.446 318.13C224.566 318.235 224.687 318.34 224.808 318.444L224.829 318.262Z" fill="#2515539f"/>
<path d="M254.863 316.675C253.995 316.067 253.021 315.58 252.003 315.266C251.887 315.217 251.737 315.182 251.628 315.246C251.496 315.301 251.415 315.431 251.366 315.548C250.963 316.583 251.956 318.008 251.135 318.733C250.997 318.867 250.789 318.972 250.735 319.169C250.655 319.491 251.056 319.712 251.388 319.768C253.101 319.989 254.78 318.254 254.48 316.543C254.601 316.647 254.721 316.752 254.842 316.857L254.863 316.675Z" fill="#2515539f"/>
<path d="M191.735 338.705C191.359 338.03 190.625 337.56 189.871 337.465C189.805 337.821 189.726 338.143 189.796 338.5C189.876 338.834 190.115 339.18 190.447 339.236C190.905 339.318 191.305 338.882 191.597 338.511C191.628 338.634 191.626 338.77 191.657 338.892L191.735 338.705Z" fill="#2515539f"/>
<path d="M193.59 294.022C193.423 293.898 193.199 293.778 192.997 293.803C192.795 293.828 192.601 293.966 192.44 294.091C191.989 294.45 191.502 294.767 191.001 295.051C191.931 295.247 192.872 295.419 193.825 295.624C193.905 295.63 193.975 295.659 194.045 295.688C194.259 295.832 194.17 296.178 194.278 296.442C194.428 296.805 194.906 296.84 195.287 296.779C198 296.24 194.575 294.678 193.59 294.022Z" fill="#2515539f"/>
<path d="M214.519 288.947C214.993 289.582 214.547 290.654 213.762 290.765C212.977 290.876 212.248 289.999 212.512 289.233C212.766 288.491 213.928 288.263 214.445 288.861L214.519 288.947Z" fill="#2515539f"/>
<path d="M209.526 322.041C210.159 322.031 210.973 322.178 211.073 322.794C211.182 323.387 210.496 323.785 209.935 324.016C209.704 324.112 209.393 324.201 209.189 324.034C208.698 323.638 209.61 322.76 209.214 322.267C209.282 322.104 209.604 322.183 209.559 322.356L209.526 322.041Z" fill="#2515539f"/>
<path d="M198.105 345.677C198.344 345.695 198.577 345.792 198.768 345.926C198.321 346.342 197.624 346.243 197.026 346.103C196.703 346.024 196.297 345.882 196.25 345.535C196.211 345.3 196.378 345.095 196.419 344.866C196.524 344.418 196.242 343.781 196.644 343.538C196.871 343.386 197.184 343.489 197.368 343.702C197.53 343.906 197.615 344.161 197.668 344.429C197.819 344.984 197.961 345.563 198.09 346.109L198.105 345.677Z" fill="#2515539f"/>
<path d="M197.2 354.819C196.891 354.444 196.21 354.899 196.255 355.382C196.299 355.866 196.698 356.223 197.092 356.524C197.591 356.048 197.719 355.281 197.46 354.653L197.2 354.819Z" fill="#2515539f"/>
<path d="M190.341 345.866C190.679 345.514 190.37 344.811 189.892 344.776C189.725 344.98 189.605 345.204 189.577 345.466C189.583 345.715 189.716 345.988 189.968 346.039C190.221 346.089 190.51 345.854 190.448 345.609L190.341 345.866Z" fill="#2515539f"/>
<path d="M190.104 312.783C190.442 312.431 190.133 311.728 189.655 311.693C189.488 311.897 189.368 312.121 189.341 312.383C189.346 312.632 189.479 312.906 189.721 312.979C189.974 313.03 190.263 312.794 190.201 312.55L190.104 312.783Z" fill="#2515539f"/>
<path d="M196.623 336.883C196.504 336.314 196.117 335.797 195.591 335.551C195.43 336.004 195.245 336.447 195.084 336.899C194.997 337.109 194.933 337.329 194.949 337.554C195.013 337.991 195.572 338.224 195.992 338.07C196.388 337.907 196.615 337.427 196.584 336.976L196.623 336.883Z" fill="#2515539f"/>
<path d="M205.808 321.643C205.892 321.048 205.567 320.448 205.027 320.169C204.718 320.451 204.52 320.86 204.482 321.282C204.441 321.839 204.746 322.486 205.275 322.597C205.826 322.717 206.409 321.975 206.04 321.547L205.808 321.643Z" fill="#2515539f"/>
<path d="M208.231 327.191C208.49 327.49 208.469 328.001 208.207 328.302C207.791 328.184 207.352 328.056 206.936 327.937C206.86 327.331 207.487 326.744 208.095 326.861L208.231 327.191Z" fill="#2515539f"/>
<path d="M217.854 336.665C218.037 336.686 218.206 336.675 218.388 336.696C218.21 337.059 218.022 337.446 217.699 337.695C217.377 337.943 216.897 338.045 216.563 337.796C216.229 337.548 216.242 336.924 216.619 336.808C217.005 336.668 217.433 336.627 217.835 336.712L217.854 336.665Z" fill="#2515539f"/>
<path d="M191.148 355.035C191.326 355.328 191.297 355.726 191.101 356C190.905 356.274 190.519 356.414 190.196 356.335C189.977 356.271 189.736 356.061 189.833 355.828C189.872 355.735 189.947 355.684 190.033 355.61C190.379 355.371 190.734 355.109 191.08 354.87C191.107 354.936 191.134 355.002 191.185 355.078L191.148 355.035Z" fill="#2515539f"/>
<path d="M183.151 355.783C183.033 356.199 183.408 356.546 183.766 356.804C184.1 357.053 184.527 357.34 184.489 357.762C184.497 357.874 184.448 357.991 184.339 358.055C184.079 358.22 183.83 357.898 183.57 357.735C183.37 357.624 183.108 357.597 182.898 357.51C182.366 357.343 181.965 356.794 181.949 356.24C182.089 355.97 182.382 355.791 182.678 355.805C182.973 355.818 183.27 356.024 183.369 356.311L183.151 355.783Z" fill="#2515539f"/>
<path d="M179.215 357.29C179.073 357.368 178.931 357.446 178.789 357.523C178.786 357.795 179.007 358.052 179.269 358.079C179.532 358.106 179.811 357.894 179.815 357.622C179.819 357.35 179.498 357.135 179.257 357.253L179.215 357.29Z" fill="#2515539f"/>
<path d="M179.349 368.668C179.207 368.746 179.065 368.824 178.923 368.902C178.919 369.174 179.141 369.43 179.403 369.457C179.666 369.484 179.945 369.272 179.949 369C179.953 368.728 179.632 368.513 179.391 368.631L179.349 368.668Z" fill="#2515539f"/>
<path d="M191.816 342.65C191.981 342.911 192.437 342.8 192.6 342.539C192.763 342.279 192.796 341.937 192.946 341.644C193.095 341.35 193.375 341.138 193.709 341.059C193.887 341.024 194.103 341.031 194.237 341.169C194.334 341.264 194.356 341.41 194.364 341.523C194.463 342.138 194.487 342.805 194.254 343.364C194.011 343.947 193.456 344.427 192.832 344.414C192.401 344.398 191.987 344.144 191.768 343.752C191.571 343.369 191.583 342.882 191.818 342.514L191.816 342.65Z" fill="#2515539f"/>
<path d="M173.968 303.252C174.134 303.512 174.59 303.401 174.753 303.141C174.916 302.88 174.949 302.538 175.098 302.245C175.248 301.952 175.527 301.74 175.861 301.66C176.04 301.625 176.256 301.633 176.39 301.77C176.487 301.866 176.508 302.011 176.516 302.124C176.616 302.74 176.639 303.406 176.406 303.965C176.164 304.548 175.609 305.028 174.985 305.015C174.554 305 174.14 304.745 173.92 304.353C173.724 303.97 173.735 303.483 173.97 303.116L173.968 303.252Z" fill="#2515539f"/>
<path d="M189.363 334.546C189.246 334.169 188.789 333.952 188.413 334.068C188.036 334.185 187.768 334.566 187.716 334.955C187.694 335.137 187.72 335.339 187.883 335.407C188 335.456 188.108 335.391 188.217 335.327C188.642 335.094 189.068 334.861 189.493 334.627L189.363 334.546Z" fill="#2515539f"/>
<path d="M180.674 243.165C181.285 242.353 181.539 241.283 181.389 240.263C181.354 240.084 181.319 239.906 181.165 239.814C180.845 239.599 180.478 240.021 180.165 240.246C179.639 240.656 178.852 240.575 178.303 240.975C177.862 241.312 177.732 241.887 177.599 242.405C177.414 243.176 177.409 244.241 178.161 244.472C178.553 244.58 178.959 244.394 179.295 244.178C180.033 243.719 180.66 243.132 181.204 242.483L180.674 243.165Z" fill="#2515539f"/>
<path d="M213.361 306.516C213.905 306.195 213.588 305.38 213.215 304.896C212.989 304.584 212.694 304.242 212.309 304.246C211.789 304.248 211.513 304.845 211.356 305.354C211.228 305.793 211.077 306.222 210.949 306.661C210.894 306.857 210.83 307.077 210.955 307.238C211.056 307.389 211.252 307.444 211.402 307.478C212.286 307.655 213.2 307.625 214.08 307.417L213.361 306.516Z" fill="#2515539f"/>
<path d="M220.143 325.447C225.169 323.162 221.983 317.542 217.347 318.43C212.476 319.357 215.787 327.436 220.143 325.447Z" fill="#2515539f"/>
<path d="M230.179 299.292C235.205 297.007 232.018 291.387 227.382 292.275C222.521 293.179 225.8 301.271 230.179 299.292Z" fill="#2515539f"/>
<path d="M203.193 351.46C203.304 352.244 202.454 353.039 201.669 352.822C201.659 352.189 201.682 351.542 202.018 350.998C202.367 350.487 203.163 350.217 203.612 350.65C203.649 351.02 203.696 351.368 203.71 351.729L203.193 351.46Z" fill="#2515539f"/>
<path d="M242.563 224.967C242.545 224.549 242.198 224.596 241.963 224.963C241.738 225.307 241.581 225.816 241.443 226.279C241.142 227.33 240.851 228.357 240.574 229.418C240.411 230.007 240.246 230.731 240.406 231.071C240.552 231.378 240.901 231.195 241.159 230.837C241.418 230.48 241.608 229.957 241.788 229.458C242.388 227.82 242.923 225.746 242.51 224.699C242.334 224.926 242.157 225.154 241.971 225.404L242.563 224.967Z" fill="#293094"/>
<path d="M184.817 361.18C184.995 361.145 185.157 361.349 185.159 361.541C185.161 361.733 185.046 361.877 184.932 362.021C184.827 362.141 184.732 362.239 184.6 362.293C184.336 362.402 183.976 362.28 183.834 362.029C183.692 361.779 183.692 361.45 183.832 361.18C183.913 361.05 184.009 360.953 184.164 360.908C184.31 360.887 184.473 360.955 184.504 361.077L184.817 361.18Z" fill="#2515539f"/>
<path d="M185.895 345.575C185.732 345.507 185.592 345.448 185.438 345.357C185.295 345.571 185.155 345.841 185.217 346.086C185.27 346.354 185.633 346.532 185.8 346.328C185.862 346.245 185.878 346.142 185.893 346.039C185.94 345.73 185.986 345.421 186.032 345.112L185.895 345.575Z" fill="#2515539f"/>
<path d="M193.415 306.995C194.01 307.079 194.307 307.941 193.884 308.366C193.56 308.423 193.218 308.39 192.895 308.311C192.881 307.949 193.037 307.576 193.256 307.312L193.415 306.995Z" fill="#2515539f"/>
<path d="M212.368 358.395C212.092 358.335 211.826 358.252 211.55 358.192C211.44 358.392 211.385 358.588 211.378 358.804C211.712 359.052 212.248 358.947 212.473 358.603L212.368 358.395Z" fill="#2515539f"/>
<path d="M62.4008 186.265C63.8401 188.79 65.8854 190.987 68.3095 192.628C68.6883 192.881 69.1175 193.133 69.572 193.234C70.4811 193.386 71.3649 192.855 71.9456 192.173C73.4102 190.507 73.5617 187.881 72.4759 185.937C71.3901 183.992 69.2438 182.755 67.0217 182.553C65.8097 182.452 64.4966 182.654 63.5623 183.462C62.628 184.27 62.2241 185.735 62.9058 186.745C63.2846 186.795 63.6381 186.315 63.4614 185.962L62.4008 186.265Z" fill="#293094"/>
</svg>
